<mxfile host="app.diagrams.net" agent="Mozilla/5.0 (Windows NT 10.0; Win64; x64) AppleWebKit/537.36 (KHTML, like Gecko) Chrome/131.0.0.0 Safari/537.36" version="25.0.3">
  <diagram name="画布1" id="fJGEBwMv9iLPl62Y8yv9">
    <mxGraphModel dx="1562" dy="818" grid="1" gridSize="10" guides="1" tooltips="1" connect="1" arrows="1" fold="1" page="1" pageScale="1" pageWidth="827" pageHeight="1169" math="0" shadow="0">
      <root>
        <mxCell id="0" />
        <mxCell id="1" parent="0" />
        <UserObject label="&lt;div style=&quot;font-size: 1px&quot;&gt;&lt;p style=&quot;text-align:center;margin-left:0;margin-right:0;margin-top:0px;margin-bottom:0px;text-indent:0;vertical-align:middle;direction:ltr;&quot;&gt;&lt;font style=&quot;font-size:12px;font-family:0;color:#000000;direction:ltr;letter-spacing:0px;line-height:120%;opacity:1&quot;&gt;SpringApplication启动&lt;/font&gt;&lt;/p&gt;&lt;/div&gt;" tags="Background" id="fgKurtapimcUxmNT2mx8-3">
          <mxCell style="verticalAlign=middle;align=center;overflow=width;vsdxID=1;fillColor=#33ff33;gradientColor=none;shape=stencil(fVLbEoIgEP0aXhlcprRns/9wRkwmE0Ms+/uktQR0eNvLWc45yxKeD03ZCwJsMFrdxEtWpiH8TABk1wgtzRwRXhCe10qLq1ZjV2HelxZpo7t62hcmnGN2AtgbsyOFw7dwQexjLCuLTXywn06AKdAEFgC4gOWtVnYO7ymlWeZxswhxwuLUax/2jfjkK3wRw2ka872h/xd+Alw7gaZdBc6udtHxxW/oA/cbPz55/M/nYD2WWrYt3prbD49rLuFh8uID);strokeColor=#000000;strokeWidth=2;spacingTop=-3;spacingBottom=-3;spacingLeft=-3;spacingRight=-3;points=[];labelBackgroundColor=none;rounded=0;html=1;whiteSpace=wrap;" parent="1" vertex="1">
            <mxGeometry x="74" y="138" width="189" height="64" as="geometry" />
          </mxCell>
        </UserObject>
        <UserObject label="&lt;div style=&quot;font-size: 1px&quot;&gt;&lt;p style=&quot;text-align:center;margin-left:0;margin-right:0;margin-top:0px;margin-bottom:0px;text-indent:0;vertical-align:middle;direction:ltr;&quot;&gt;&lt;font style=&quot;font-size:12px;font-family:0;color:#000000;direction:ltr;letter-spacing:0px;line-height:120%;opacity:1&quot;&gt;new SpringApplication()&lt;/font&gt;&lt;/p&gt;&lt;/div&gt;" tags="Background" id="fgKurtapimcUxmNT2mx8-4">
          <mxCell style="verticalAlign=middle;align=center;overflow=width;vsdxID=2;fillColor=#ff99ff;gradientColor=none;shape=stencil(nZBRDoQgDERP03+WHsHFe5iISyOCQdT19kIaIxq//Jtp3zTpAFaTaUYNUkwx+F6v1EYD+AUpyRkdKCYFqACrzgf9C352LfuxyWRWg1/yhT/nRE5IsZWuZtCSK8CPeI0e/hF+jV7AJM4PO7KWCyr390bSiNtEtQM=);strokeColor=#000000;strokeWidth=2;spacingTop=-3;spacingBottom=-3;spacingLeft=-3;spacingRight=-3;points=[];labelBackgroundColor=none;rounded=0;html=1;whiteSpace=wrap;" parent="1" vertex="1">
            <mxGeometry x="326" y="152" width="199" height="38" as="geometry" />
          </mxCell>
        </UserObject>
        <UserObject label="&lt;div style=&quot;font-size: 1px&quot;&gt;&lt;p style=&quot;text-align:center;margin-left:0;margin-right:0;margin-top:0px;margin-bottom:0px;text-indent:0;vertical-align:middle;direction:ltr;&quot;&gt;&lt;font style=&quot;font-size:12px;font-family:0;color:#000000;direction:ltr;letter-spacing:0px;line-height:120%;opacity:1&quot;&gt;开始执行&lt;br/&gt;&lt;/font&gt;&lt;font style=&quot;font-size:12px;font-family:0;color:#000000;direction:ltr;letter-spacing:0px;line-height:120%;opacity:1&quot;&gt;run()方法&lt;/font&gt;&lt;/p&gt;&lt;/div&gt;" tags="Background" id="fgKurtapimcUxmNT2mx8-5">
          <mxCell style="verticalAlign=middle;align=center;overflow=width;vsdxID=3;fillColor=#ff0000;gradientColor=none;shape=stencil(nZBRDoQgDERP03+WHsHFe5iISyOCQdT19kIaIxq//Jtp3zTpAFaTaUYNUkwx+F6v1EYD+AUpyRkdKCYFqACrzgf9C352LfuxyWRWg1/yhT/nRE5IsZWuZtCSK8CPeI0e/hF+jV7AJM4PO7KWCyr390bSiNtEtQM=);strokeColor=#000000;strokeWidth=2;spacingTop=-3;spacingBottom=-3;spacingLeft=-3;spacingRight=-3;points=[];labelBackgroundColor=none;rounded=0;html=1;whiteSpace=wrap;" parent="1" vertex="1">
            <mxGeometry x="363" y="258" width="125" height="78" as="geometry" />
          </mxCell>
        </UserObject>
        <UserObject label="&lt;div style=&quot;font-size: 1px&quot;&gt;&lt;p style=&quot;text-align:center;margin-left:0;margin-right:0;margin-top:0px;margin-bottom:0px;text-indent:0;vertical-align:middle;direction:ltr;&quot;&gt;&lt;font style=&quot;font-size:12px;font-family:0;color:#000000;direction:ltr;letter-spacing:0px;line-height:120%;opacity:1&quot;&gt;计时器实例并启动应用监听器开始监听&lt;/font&gt;&lt;/p&gt;&lt;/div&gt;" tags="Background" id="fgKurtapimcUxmNT2mx8-7">
          <mxCell style="verticalAlign=middle;align=center;overflow=width;vsdxID=5;fillColor=#FFFFFF;gradientColor=none;shape=stencil(lVLbDoMgDP0aXgkWp/HZuf8wESeZE4eXub+frG6CGpK99bSnnNNSwtOuyltBgHW9VjfxlEVfEX4mALKphJb9HBGeEZ6WSourVkNTIG5zwzTRXY3mhQn7mOkA9kJ0onHwSVyQ+xjywnADl+zCCRByGocLAWzC8lYtG0s3iShEjjbzCAfML73W4XgQV3ylL2ZCCsk/8r/E14A9zsbToQNrV4ds/+J38pvpd/O44v4/n4P1WEpZ13hrdn17XHMKD5Nnbw==);strokeColor=#66b2ff;strokeWidth=2;spacingTop=-3;spacingBottom=-3;spacingLeft=-3;spacingRight=-3;points=[];labelBackgroundColor=none;rounded=0;html=1;whiteSpace=wrap;" parent="1" vertex="1">
            <mxGeometry x="618" y="188" width="107" height="70" as="geometry" />
          </mxCell>
        </UserObject>
        <UserObject label="&lt;div style=&quot;font-size: 1px&quot;&gt;&lt;p style=&quot;text-align:center;margin-left:0;margin-right:0;margin-top:0px;margin-bottom:0px;text-indent:0;vertical-align:middle;direction:ltr;&quot;&gt;&lt;font style=&quot;font-size:12px;font-family:0;color:#000000;direction:ltr;letter-spacing:0px;line-height:120%;opacity:1&quot;&gt;headless系统属性设置&lt;/font&gt;&lt;/p&gt;&lt;/div&gt;" tags="Background" id="fgKurtapimcUxmNT2mx8-8">
          <mxCell style="verticalAlign=middle;align=center;overflow=width;vsdxID=6;fillColor=#ff99cc;gradientColor=none;shape=stencil(nZBRDoQgDERP03+WHsHFe5iISyOCQdT19kIaIxq//Jtp3zTpAFaTaUYNUkwx+F6v1EYD+AUpyRkdKCYFqACrzgf9C352LfuxyWRWg1/yhT/nRE5IsZWuZtCSK8CPeI0e/hF+jV7AJM4PO7KWCyr390bSiNtEtQM=);strokeColor=#000000;strokeWidth=2;spacingTop=-3;spacingBottom=-3;spacingLeft=-3;spacingRight=-3;points=[];labelBackgroundColor=none;rounded=0;html=1;whiteSpace=wrap;" parent="1" vertex="1">
            <mxGeometry x="618" y="275" width="107" height="71" as="geometry" />
          </mxCell>
        </UserObject>
        <UserObject label="&lt;div style=&quot;font-size: 1px&quot;&gt;&lt;p style=&quot;text-align:center;margin-left:0;margin-right:0;margin-top:0px;margin-bottom:0px;text-indent:0;vertical-align:middle;direction:ltr;&quot;&gt;&lt;font style=&quot;font-size:12px;font-family:0;color:#000000;direction:ltr;letter-spacing:0px;line-height:120%;opacity:1&quot;&gt;初始化监听器&lt;br/&gt;&lt;/font&gt;&lt;font style=&quot;font-size:12px;font-family:0;color:#000000;direction:ltr;letter-spacing:0px;line-height:120%;opacity:1&quot;&gt;getRunListeners(args)&lt;/font&gt;&lt;/p&gt;&lt;/div&gt;" tags="Background" id="fgKurtapimcUxmNT2mx8-10">
          <mxCell style="verticalAlign=middle;align=center;overflow=width;vsdxID=8;fillColor=#ff99cc;gradientColor=none;shape=stencil(nZBRDoQgDERP03+WHsHFe5iISyOCQdT19kIaIxq//Jtp3zTpAFaTaUYNUkwx+F6v1EYD+AUpyRkdKCYFqACrzgf9C352LfuxyWRWg1/yhT/nRE5IsZWuZtCSK8CPeI0e/hF+jV7AJM4PO7KWCyr390bSiNtEtQM=);strokeColor=#000000;strokeWidth=2;spacingTop=-3;spacingBottom=-3;spacingLeft=-3;spacingRight=-3;points=[];labelBackgroundColor=none;rounded=0;html=1;whiteSpace=wrap;" parent="1" vertex="1">
            <mxGeometry x="562" y="364" width="171" height="47" as="geometry" />
          </mxCell>
        </UserObject>
        <UserObject label="&lt;div style=&quot;font-size: 1px&quot;&gt;&lt;p style=&quot;text-align:center;margin-left:0;margin-right:0;margin-top:0px;margin-bottom:0px;text-indent:0;vertical-align:middle;direction:ltr;&quot;&gt;&lt;font style=&quot;font-size:12px;font-family:0;color:#000000;direction:ltr;letter-spacing:0px;line-height:120%;opacity:1&quot;&gt;根据传入的类名，得到所需要的工厂集合的实例&lt;/font&gt;&lt;/p&gt;&lt;/div&gt;" tags="Background" id="fgKurtapimcUxmNT2mx8-11">
          <mxCell style="verticalAlign=middle;align=center;overflow=width;vsdxID=9;fillColor=#66ffb3;gradientColor=none;shape=stencil(jZFRDsIgEERPs58aYGM9QK33aCwVIkJDqdbbC1mbKiGmfzvDWyaZBaxH1Q4SBBuDdzf51F1QgCcQQlslvQ5xAmwA6955efVush3poU1kmu7ukX6YaY+lDcFepA4kz0ReJk8o/2U/cserfXUkbxbkcbZAogBhDuGW2BVfjEJwFssLsX9DjbYbW4nDWmavjaFbfL/n5UeLDofNGw==);strokeColor=#000000;strokeWidth=2;spacingTop=-3;spacingBottom=-3;spacingLeft=-3;spacingRight=-3;points=[];labelBackgroundColor=none;rounded=0;html=1;whiteSpace=wrap;" parent="1" vertex="1">
            <mxGeometry x="1049" y="414" width="114" height="86" as="geometry" />
          </mxCell>
        </UserObject>
        <UserObject label="&lt;div style=&quot;font-size: 1px&quot;&gt;&lt;p style=&quot;text-align:center;margin-left:0;margin-right:0;margin-top:0px;margin-bottom:0px;text-indent:0;vertical-align:middle;direction:ltr;&quot;&gt;&lt;font style=&quot;font-size:12px;font-family:0;color:#000000;direction:ltr;letter-spacing:0px;line-height:120%;opacity:1&quot;&gt;初始化&lt;/font&gt;&lt;/p&gt;&lt;/div&gt;" tags="Background" id="fgKurtapimcUxmNT2mx8-13">
          <mxCell style="verticalAlign=middle;align=center;overflow=width;vsdxID=11;fillColor=#ffff99;gradientColor=none;shape=stencil(nZBRDoQgDERP03+WHsHFe5iISyOCQdT19kIaIxq//Jtp3zTpAFaTaUYNUkwx+F6v1EYD+AUpyRkdKCYFqACrzgf9C352LfuxyWRWg1/yhT/nRE5IsZWuZtCSK8CPeI0e/hF+jV7AJM4PO7KWCyr390bSiNtEtQM=);strokeColor=#000000;strokeWidth=2;spacingTop=-3;spacingBottom=-3;spacingLeft=-3;spacingRight=-3;points=[];labelBackgroundColor=none;rounded=0;html=1;whiteSpace=wrap;" parent="1" vertex="1">
            <mxGeometry x="740" y="154" width="104" height="34" as="geometry" />
          </mxCell>
        </UserObject>
        <UserObject label="&lt;div style=&quot;font-size: 1px&quot;&gt;&lt;p style=&quot;text-align:center;margin-left:0;margin-right:0;margin-top:0px;margin-bottom:0px;text-indent:0;vertical-align:middle;direction:ltr;&quot;&gt;&lt;font style=&quot;font-size:12px;font-family:0;color:#000000;direction:ltr;letter-spacing:0px;line-height:120%;opacity:1&quot;&gt;判断应用类型是否为web&lt;/font&gt;&lt;/p&gt;&lt;/div&gt;" tags="Background" id="fgKurtapimcUxmNT2mx8-14">
          <mxCell style="verticalAlign=middle;align=center;overflow=width;vsdxID=12;fillColor=#ffff99;gradientColor=none;shape=stencil(nZBRDoQgDERP03+WHsHFe5iISyOCQdT19kIaIxq//Jtp3zTpAFaTaUYNUkwx+F6v1EYD+AUpyRkdKCYFqACrzgf9C352LfuxyWRWg1/yhT/nRE5IsZWuZtCSK8CPeI0e/hF+jV7AJM4PO7KWCyr390bSiNtEtQM=);strokeColor=#000000;strokeWidth=2;spacingTop=-3;spacingBottom=-3;spacingLeft=-3;spacingRight=-3;points=[];labelBackgroundColor=none;rounded=0;html=1;whiteSpace=wrap;" parent="1" vertex="1">
            <mxGeometry x="916" y="66" width="165" height="32" as="geometry" />
          </mxCell>
        </UserObject>
        <UserObject label="&lt;div style=&quot;font-size: 1px&quot;&gt;&lt;p style=&quot;text-align:center;margin-left:0;margin-right:0;margin-top:0px;margin-bottom:0px;text-indent:0;vertical-align:middle;direction:ltr;&quot;&gt;&lt;font style=&quot;font-size:12px;font-family:0;color:#000000;direction:ltr;letter-spacing:0px;line-height:120%;opacity:1&quot;&gt;加载所有可用初始化&lt;/font&gt;&lt;/p&gt;&lt;/div&gt;" tags="Background" id="fgKurtapimcUxmNT2mx8-15">
          <mxCell style="verticalAlign=middle;align=center;overflow=width;vsdxID=13;fillColor=#ffff99;gradientColor=none;shape=stencil(nZBRDoQgDERP03+WHsHFe5iISyOCQdT19kIaIxq//Jtp3zTpAFaTaUYNUkwx+F6v1EYD+AUpyRkdKCYFqACrzgf9C352LfuxyWRWg1/yhT/nRE5IsZWuZtCSK8CPeI0e/hF+jV7AJM4PO7KWCyr390bSiNtEtQM=);strokeColor=#000000;strokeWidth=2;spacingTop=-3;spacingBottom=-3;spacingLeft=-3;spacingRight=-3;points=[];labelBackgroundColor=none;rounded=0;html=1;whiteSpace=wrap;" parent="1" vertex="1">
            <mxGeometry x="916" y="118" width="165" height="36" as="geometry" />
          </mxCell>
        </UserObject>
        <UserObject label="&lt;div style=&quot;font-size: 1px&quot;&gt;&lt;p style=&quot;text-align:center;margin-left:0;margin-right:0;margin-top:0px;margin-bottom:0px;text-indent:0;vertical-align:middle;direction:ltr;&quot;&gt;&lt;font style=&quot;font-size:12px;font-family:0;color:#000000;direction:ltr;letter-spacing:0px;line-height:120%;opacity:1&quot;&gt;设置所有可用程序监听器&lt;/font&gt;&lt;/p&gt;&lt;/div&gt;" tags="Background" id="fgKurtapimcUxmNT2mx8-16">
          <mxCell style="verticalAlign=middle;align=center;overflow=width;vsdxID=14;fillColor=#ffff99;gradientColor=none;shape=stencil(nZBRDoQgDERP03+WHsHFe5iISyOCQdT19kIaIxq//Jtp3zTpAFaTaUYNUkwx+F6v1EYD+AUpyRkdKCYFqACrzgf9C352LfuxyWRWg1/yhT/nRE5IsZWuZtCSK8CPeI0e/hF+jV7AJM4PO7KWCyr390bSiNtEtQM=);strokeColor=#000000;strokeWidth=2;spacingTop=-3;spacingBottom=-3;spacingLeft=-3;spacingRight=-3;points=[];labelBackgroundColor=none;rounded=0;html=1;whiteSpace=wrap;" parent="1" vertex="1">
            <mxGeometry x="916" y="169" width="165" height="37" as="geometry" />
          </mxCell>
        </UserObject>
        <UserObject label="&lt;div style=&quot;font-size: 1px&quot;&gt;&lt;p style=&quot;text-align:center;margin-left:0;margin-right:0;margin-top:0px;margin-bottom:0px;text-indent:0;vertical-align:middle;direction:ltr;&quot;&gt;&lt;font style=&quot;font-size:12px;font-family:0;color:#000000;direction:ltr;letter-spacing:0px;line-height:120%;opacity:1&quot;&gt;推荐并设置main方法的&lt;br/&gt;&lt;/font&gt;&lt;font style=&quot;font-size:12px;font-family:0;color:#000000;direction:ltr;letter-spacing:0px;line-height:120%;opacity:1&quot;&gt;定义类&lt;/font&gt;&lt;/p&gt;&lt;/div&gt;" tags="Background" id="fgKurtapimcUxmNT2mx8-17">
          <mxCell style="verticalAlign=middle;align=center;overflow=width;vsdxID=15;fillColor=#ffff99;gradientColor=none;shape=stencil(nZBRDoQgDERP03+WHsHFe5iISyOCQdT19kIaIxq//Jtp3zTpAFaTaUYNUkwx+F6v1EYD+AUpyRkdKCYFqACrzgf9C352LfuxyWRWg1/yhT/nRE5IsZWuZtCSK8CPeI0e/hF+jV7AJM4PO7KWCyr390bSiNtEtQM=);strokeColor=#000000;strokeWidth=2;spacingTop=-3;spacingBottom=-3;spacingLeft=-3;spacingRight=-3;points=[];labelBackgroundColor=none;rounded=0;html=1;whiteSpace=wrap;" parent="1" vertex="1">
            <mxGeometry x="916" y="227" width="165" height="42" as="geometry" />
          </mxCell>
        </UserObject>
        <UserObject label="&lt;div style=&quot;font-size: 1px&quot;&gt;&lt;p style=&quot;text-align:center;margin-left:0;margin-right:0;margin-top:0px;margin-bottom:0px;text-indent:0;vertical-align:middle;direction:ltr;&quot;&gt;&lt;font style=&quot;font-size:12px;font-family:0;color:#000000;direction:ltr;letter-spacing:0px;line-height:120%;opacity:1&quot;&gt;通过类加载器获取spring.factories&lt;br/&gt;&lt;/font&gt;&lt;font style=&quot;font-size:12px;font-family:0;color:#000000;direction:ltr;letter-spacing:0px;line-height:120%;opacity:1&quot;&gt;文件&lt;/font&gt;&lt;/p&gt;&lt;/div&gt;" tags="Background" id="fgKurtapimcUxmNT2mx8-19">
          <mxCell style="verticalAlign=middle;align=center;overflow=width;vsdxID=17;fillColor=#66ffb3;gradientColor=none;shape=stencil(nZHBDoIwEES/ptem3YrgGfE/SCi2sbZYiuLfS12MCkGNt53Zt5OmQ0TeqrKRBFgbvDvIi66CImJLALRV0uswTEQUROS183LvXWcr1E0ZyTgd3Tkm9HjH4gWwK6osoyy9OzuEjbaLMFsGOfsbnT3h1JVVxDnu02TER71eUUCnB3SSRyD8lgiTRM453Yj3zG+Rn/5pBg/Ds45aG4Ntvu6n9Q0WVi+KGw==);strokeColor=#000000;strokeWidth=2;spacingTop=-3;spacingBottom=-3;spacingLeft=-3;spacingRight=-3;points=[];labelBackgroundColor=none;rounded=0;html=1;whiteSpace=wrap;" parent="1" vertex="1">
            <mxGeometry x="865" y="417" width="116" height="81" as="geometry" />
          </mxCell>
        </UserObject>
        <UserObject label="&lt;div style=&quot;font-size: 1px&quot;&gt;&lt;p style=&quot;text-align:center;margin-left:0;margin-right:0;margin-top:0px;margin-bottom:0px;text-indent:0;vertical-align:middle;direction:ltr;&quot;&gt;&lt;font style=&quot;font-size:12px;font-family:0;color:#000000;direction:ltr;letter-spacing:0px;line-height:120%;opacity:1&quot;&gt;获取文件中工厂类的全路径&lt;/font&gt;&lt;/p&gt;&lt;/div&gt;" tags="Background" id="fgKurtapimcUxmNT2mx8-20">
          <mxCell style="verticalAlign=middle;align=center;overflow=width;vsdxID=18;fillColor=#66ffb3;gradientColor=none;shape=stencil(nZBRDoQgDERP03+WHsHFe5iISyOCQdT19kIaIxq//Jtp3zTpAFaTaUYNUkwx+F6v1EYD+AUpyRkdKCYFqACrzgf9C352LfuxyWRWg1/yhT/nRE5IsZWuZtCSK8CPeI0e/hF+jV7AJM4PO7KWCyr390bSiNtEtQM=);strokeColor=#000000;strokeWidth=2;spacingTop=-3;spacingBottom=-3;spacingLeft=-3;spacingRight=-3;points=[];labelBackgroundColor=none;rounded=0;html=1;whiteSpace=wrap;" parent="1" vertex="1">
            <mxGeometry x="865" y="529" width="116" height="48" as="geometry" />
          </mxCell>
        </UserObject>
        <UserObject label="&lt;div style=&quot;font-size: 1px&quot;&gt;&lt;p style=&quot;text-align:center;margin-left:0;margin-right:0;margin-top:0px;margin-bottom:0px;text-indent:0;vertical-align:middle;direction:ltr;&quot;&gt;&lt;font style=&quot;font-size:12px;font-family:0;color:#000000;direction:ltr;letter-spacing:0px;line-height:120%;opacity:1&quot;&gt;通过工厂类反射，得到工厂的class对象，构造方法&lt;/font&gt;&lt;/p&gt;&lt;/div&gt;" tags="Background" id="fgKurtapimcUxmNT2mx8-21">
          <mxCell style="verticalAlign=middle;align=center;overflow=width;vsdxID=19;fillColor=#66ffb3;gradientColor=none;shape=stencil(nZBRDoQgDERP03+WHsHFe5iISyOCQdT19kIaIxq//Jtp3zTpAFaTaUYNUkwx+F6v1EYD+AUpyRkdKCYFqACrzgf9C352LfuxyWRWg1/yhT/nRE5IsZWuZtCSK8CPeI0e/hF+jV7AJM4PO7KWCyr390bSiNtEtQM=);strokeColor=#000000;strokeWidth=2;spacingTop=-3;spacingBottom=-3;spacingLeft=-3;spacingRight=-3;points=[];labelBackgroundColor=none;rounded=0;html=1;whiteSpace=wrap;" parent="1" vertex="1">
            <mxGeometry x="865" y="610" width="116" height="70" as="geometry" />
          </mxCell>
        </UserObject>
        <UserObject label="&lt;div style=&quot;font-size: 1px&quot;&gt;&lt;p style=&quot;text-align:center;margin-left:0;margin-right:0;margin-top:0px;margin-bottom:0px;text-indent:0;vertical-align:middle;direction:ltr;&quot;&gt;&lt;font style=&quot;font-size:12px;font-family:0;color:#000000;direction:ltr;letter-spacing:0px;line-height:120%;opacity:1&quot;&gt;生成工厂类实例，并返回&lt;/font&gt;&lt;/p&gt;&lt;/div&gt;" tags="Background" id="fgKurtapimcUxmNT2mx8-22">
          <mxCell style="verticalAlign=middle;align=center;overflow=width;vsdxID=20;fillColor=#66ffb3;gradientColor=none;shape=stencil(nZBRDoQgDERP03+WHsHFe5iISyOCQdT19kIaIxq//Jtp3zTpAFaTaUYNUkwx+F6v1EYD+AUpyRkdKCYFqACrzgf9C352LfuxyWRWg1/yhT/nRE5IsZWuZtCSK8CPeI0e/hF+jV7AJM4PO7KWCyr390bSiNtEtQM=);strokeColor=#000000;strokeWidth=2;spacingTop=-3;spacingBottom=-3;spacingLeft=-3;spacingRight=-3;points=[];labelBackgroundColor=none;rounded=0;html=1;whiteSpace=wrap;" parent="1" vertex="1">
            <mxGeometry x="865" y="704" width="116" height="53" as="geometry" />
          </mxCell>
        </UserObject>
        <UserObject label="&lt;div style=&quot;font-size: 1px&quot;&gt;&lt;p style=&quot;text-align:center;margin-left:0;margin-right:0;margin-top:0px;margin-bottom:0px;text-indent:0;vertical-align:middle;direction:ltr;&quot;&gt;&lt;font style=&quot;font-size:12px;font-family:0;color:#000000;direction:ltr;letter-spacing:0px;line-height:120%;opacity:1&quot;&gt;启动已经准备好的监听器&lt;/font&gt;&lt;/p&gt;&lt;/div&gt;" tags="Background" id="fgKurtapimcUxmNT2mx8-24">
          <mxCell style="verticalAlign=middle;align=center;overflow=width;vsdxID=22;fillColor=#ff99cc;gradientColor=none;shape=stencil(nZBRDoQgDERP03+WHsHFe5iISyOCQdT19kIaIxq//Jtp3zTpAFaTaUYNUkwx+F6v1EYD+AUpyRkdKCYFqACrzgf9C352LfuxyWRWg1/yhT/nRE5IsZWuZtCSK8CPeI0e/hF+jV7AJM4PO7KWCyr390bSiNtEtQM=);strokeColor=#000000;strokeWidth=2;spacingTop=-3;spacingBottom=-3;spacingLeft=-3;spacingRight=-3;points=[];labelBackgroundColor=none;rounded=0;html=1;whiteSpace=wrap;" parent="1" vertex="1">
            <mxGeometry x="562" y="448" width="171" height="31" as="geometry" />
          </mxCell>
        </UserObject>
        <UserObject label="&lt;div style=&quot;font-size: 1px&quot;&gt;&lt;p style=&quot;text-align:center;margin-left:0;margin-right:0;margin-top:0px;margin-bottom:0px;text-indent:0;vertical-align:middle;direction:ltr;&quot;&gt;&lt;font style=&quot;font-size:12px;font-family:0;color:#000000;direction:ltr;letter-spacing:0px;line-height:120%;opacity:1&quot;&gt;装配环境参数&lt;br/&gt;&lt;/font&gt;&lt;font style=&quot;font-size:12px;font-family:0;color:#000000;direction:ltr;letter-spacing:0px;line-height:120%;opacity:1&quot;&gt;DefaultApplicationArguments&lt;/font&gt;&lt;/p&gt;&lt;/div&gt;" tags="Background" id="fgKurtapimcUxmNT2mx8-26">
          <mxCell style="verticalAlign=middle;align=center;overflow=width;vsdxID=24;fillColor=#ff99cc;gradientColor=none;shape=stencil(nZBRDoQgDERP03+WHsHFe5iISyOCQdT19kIaIxq//Jtp3zTpAFaTaUYNUkwx+F6v1EYD+AUpyRkdKCYFqACrzgf9C352LfuxyWRWg1/yhT/nRE5IsZWuZtCSK8CPeI0e/hF+jV7AJM4PO7KWCyr390bSiNtEtQM=);strokeColor=#000000;strokeWidth=2;spacingTop=-3;spacingBottom=-3;spacingLeft=-3;spacingRight=-3;points=[];labelBackgroundColor=none;rounded=0;html=1;whiteSpace=wrap;" parent="1" vertex="1">
            <mxGeometry x="99" y="384" width="224" height="41" as="geometry" />
          </mxCell>
        </UserObject>
        <UserObject label="&lt;div style=&quot;font-size: 1px&quot;&gt;&lt;p style=&quot;text-align:center;margin-left:0;margin-right:0;margin-top:0px;margin-bottom:0px;text-indent:0;vertical-align:middle;direction:ltr;&quot;&gt;&lt;font style=&quot;font-size:12px;font-family:0;color:#000000;direction:ltr;letter-spacing:0px;line-height:120%;opacity:1&quot;&gt;创建配置环境&lt;br/&gt;&lt;/font&gt;&lt;font style=&quot;font-size:12px;font-family:0;color:#000000;direction:ltr;letter-spacing:0px;line-height:120%;opacity:1&quot;&gt;web/standard&lt;/font&gt;&lt;/p&gt;&lt;/div&gt;" tags="Background" id="fgKurtapimcUxmNT2mx8-28">
          <mxCell style="verticalAlign=middle;align=center;overflow=width;vsdxID=26;fillColor=#FFFFFF;gradientColor=none;shape=stencil(lVLLDoMgEPwargSXRtOztf9hAlZSKxa1tX9f6doCakh628csM7sM4Xlfl50kwPrB6Kt8KjHUhJ8IgGpradQwR4QXhOeVNvJi9NgKzLvSIm100w/7woRzzE4Ae2GWUcg+hTNi72MpLDYJwWE6Aaacpksf/P7yVKNaj/aY0kPAzCK0CYsTuz7srxFyO/iiBWjG/6H/Fb4CvG1WknYFuEPtguNH35Cvdt9sE3LH/3sOnFEq1TToM7+/NtZcQlPy4g0=);strokeColor=#66b2ff;strokeWidth=2;spacingTop=-3;spacingBottom=-3;spacingLeft=-3;spacingRight=-3;points=[];labelBackgroundColor=none;rounded=0;html=1;whiteSpace=wrap;" parent="1" vertex="1">
            <mxGeometry x="67" y="474" width="111" height="55" as="geometry" />
          </mxCell>
        </UserObject>
        <UserObject label="&lt;div style=&quot;font-size: 1px&quot;&gt;&lt;p style=&quot;text-align:center;margin-left:0;margin-right:0;margin-top:0px;margin-bottom:0px;text-indent:0;vertical-align:middle;direction:ltr;&quot;&gt;&lt;font style=&quot;font-size:12px;font-family:0;color:#000000;direction:ltr;letter-spacing:0px;line-height:120%;opacity:1&quot;&gt;加载属性资源&lt;/font&gt;&lt;/p&gt;&lt;/div&gt;" tags="Background" id="fgKurtapimcUxmNT2mx8-29">
          <mxCell style="verticalAlign=middle;align=center;overflow=width;vsdxID=27;fillColor=#FFFFFF;gradientColor=none;shape=stencil(nZBRDoQgDERP03+WHsHFe5iISyOCQdT19kIaIxq//Jtp3zTpAFaTaUYNUkwx+F6v1EYD+AUpyRkdKCYFqACrzgf9C352LfuxyWRWg1/yhT/nRE5IsZWuZtCSK8CPeI0e/hF+jV7AJM4PO7KWCyr390bSiNtEtQM=);strokeColor=#66b2ff;strokeWidth=2;spacingTop=-3;spacingBottom=-3;spacingLeft=-3;spacingRight=-3;points=[];labelBackgroundColor=none;rounded=0;html=1;whiteSpace=wrap;" parent="1" vertex="1">
            <mxGeometry x="67" y="545" width="111" height="45" as="geometry" />
          </mxCell>
        </UserObject>
        <UserObject label="&lt;div style=&quot;font-size: 1px&quot;&gt;&lt;p style=&quot;text-align:center;margin-left:0;margin-right:0;margin-top:0px;margin-bottom:0px;text-indent:0;vertical-align:middle;direction:ltr;&quot;&gt;&lt;font style=&quot;font-size:12px;font-family:0;color:#000000;direction:ltr;letter-spacing:0px;line-height:120%;opacity:1&quot;&gt;加入预监听集合&lt;/font&gt;&lt;/p&gt;&lt;/div&gt;" tags="Background" id="fgKurtapimcUxmNT2mx8-30">
          <mxCell style="verticalAlign=middle;align=center;overflow=width;vsdxID=28;fillColor=#FFFFFF;gradientColor=none;shape=stencil(nZBRDoQgDERP03+WHsHFe5iISyOCQdT19kIaIxq//Jtp3zTpAFaTaUYNUkwx+F6v1EYD+AUpyRkdKCYFqACrzgf9C352LfuxyWRWg1/yhT/nRE5IsZWuZtCSK8CPeI0e/hF+jV7AJM4PO7KWCyr390bSiNtEtQM=);strokeColor=#66b2ff;strokeWidth=2;spacingTop=-3;spacingBottom=-3;spacingLeft=-3;spacingRight=-3;points=[];labelBackgroundColor=none;rounded=0;html=1;whiteSpace=wrap;" parent="1" vertex="1">
            <mxGeometry x="67" y="602" width="111" height="46" as="geometry" />
          </mxCell>
        </UserObject>
        <UserObject label="&lt;div style=&quot;font-size: 1px&quot;&gt;&lt;p style=&quot;text-align:center;margin-left:0;margin-right:0;margin-top:0px;margin-bottom:0px;text-indent:0;vertical-align:middle;direction:ltr;&quot;&gt;&lt;font style=&quot;font-size:12px;font-family:0;color:#000000;direction:ltr;letter-spacing:0px;line-height:120%;opacity:1&quot;&gt;打印banner&lt;br/&gt;&lt;/font&gt;&lt;font style=&quot;font-size:12px;font-family:0;color:#000000;direction:ltr;letter-spacing:0px;line-height:120%;opacity:1&quot;&gt;图案&lt;/font&gt;&lt;/p&gt;&lt;/div&gt;" tags="Background" id="fgKurtapimcUxmNT2mx8-31">
          <mxCell style="verticalAlign=middle;align=center;overflow=width;vsdxID=29;fillColor=#ff99cc;gradientColor=none;shape=stencil(nZBRDoQgDERP03+WHsHFe5iISyOCQdT19kIaIxq//Jtp3zTpAFaTaUYNUkwx+F6v1EYD+AUpyRkdKCYFqACrzgf9C352LfuxyWRWg1/yhT/nRE5IsZWuZtCSK8CPeI0e/hF+jV7AJM4PO7KWCyr390bSiNtEtQM=);strokeColor=#000000;strokeWidth=2;spacingTop=-3;spacingBottom=-3;spacingLeft=-3;spacingRight=-3;points=[];labelBackgroundColor=none;rounded=0;html=1;whiteSpace=wrap;" parent="1" vertex="1">
            <mxGeometry x="496" y="498" width="95" height="64" as="geometry" />
          </mxCell>
        </UserObject>
        <UserObject label="&lt;div style=&quot;font-size: 1px&quot;&gt;&lt;p style=&quot;text-align:center;margin-left:0;margin-right:0;margin-top:0px;margin-bottom:0px;text-indent:0;vertical-align:middle;direction:ltr;&quot;&gt;&lt;font style=&quot;font-size:12px;font-family:0;color:#000000;direction:ltr;letter-spacing:0px;line-height:120%;opacity:1&quot;&gt;上下文区域&lt;/font&gt;&lt;/p&gt;&lt;/div&gt;" tags="Background" id="fgKurtapimcUxmNT2mx8-33">
          <mxCell style="verticalAlign=middle;align=center;overflow=width;vsdxID=31;fillColor=#ff99cc;gradientColor=none;shape=stencil(nZBRDoQgDERP03+WHsHFe5iISyOCQdT19kIaIxq//Jtp3zTpAFaTaUYNUkwx+F6v1EYD+AUpyRkdKCYFqACrzgf9C352LfuxyWRWg1/yhT/nRE5IsZWuZtCSK8CPeI0e/hF+jV7AJM4PO7KWCyr390bSiNtEtQM=);strokeColor=#000000;strokeWidth=2;spacingTop=-3;spacingBottom=-3;spacingLeft=-3;spacingRight=-3;points=[];labelBackgroundColor=none;rounded=0;html=1;whiteSpace=wrap;" parent="1" vertex="1">
            <mxGeometry x="375" y="606" width="100" height="48" as="geometry" />
          </mxCell>
        </UserObject>
        <UserObject label="&lt;div style=&quot;font-size: 1px&quot;&gt;&lt;p style=&quot;text-align:center;margin-left:0;margin-right:0;margin-top:0px;margin-bottom:0px;text-indent:0;vertical-align:middle;direction:ltr;&quot;&gt;&lt;font style=&quot;font-size:12px;font-family:0;color:#000000;direction:ltr;letter-spacing:0px;line-height:120%;opacity:1&quot;&gt;根据类型创建&lt;br/&gt;&lt;/font&gt;&lt;font style=&quot;font-size:12px;font-family:0;color:#000000;direction:ltr;letter-spacing:0px;line-height:120%;opacity:1&quot;&gt;web/standard&lt;br/&gt;&lt;/font&gt;&lt;font style=&quot;font-size:12px;font-family:0;color:#000000;direction:ltr;letter-spacing:0px;line-height:120%;opacity:1&quot;&gt;上下文&lt;/font&gt;&lt;/p&gt;&lt;/div&gt;" tags="Background" id="fgKurtapimcUxmNT2mx8-35">
          <mxCell style="verticalAlign=middle;align=center;overflow=width;vsdxID=33;fillColor=#FFFFFF;gradientColor=none;shape=stencil(lVLRDoIwDPyavS6jBcVnhP8gYcgiMhyg+Pcyh7IBWeJbr73url0JJl2Vt5wA63olr/wpir4ieCYAoqm4Ev0UEUwJJqVU/KLk0BQGt7lm6ugmH/qF0fQx3QHsZVBE4/iTyAz3PuSF5gYu2YUjGIg0Os4EsAnzW7VoLN3TgYboaDOPcMD80ksd9gdxxRf6bCakAfwj/0t8DdjjrDztOrB2tcv2L34jv5p+M48r7v/zKViOpRR1bW7Nrq+Pa0qZw8T0DQ==);strokeColor=#66b2ff;strokeWidth=2;spacingTop=-3;spacingBottom=-3;spacingLeft=-3;spacingRight=-3;points=[];labelBackgroundColor=none;rounded=0;html=1;whiteSpace=wrap;" parent="1" vertex="1">
            <mxGeometry x="562" y="596" width="112" height="68" as="geometry" />
          </mxCell>
        </UserObject>
        <UserObject label="&lt;div style=&quot;font-size: 1px&quot;&gt;&lt;p style=&quot;text-align:center;margin-left:0;margin-right:0;margin-top:0px;margin-bottom:0px;text-indent:0;vertical-align:middle;direction:ltr;&quot;&gt;&lt;font style=&quot;font-size:12px;font-family:0;color:#000000;direction:ltr;letter-spacing:0px;line-height:120%;opacity:1&quot;&gt;准备上下文异常报告器&lt;/font&gt;&lt;/p&gt;&lt;/div&gt;" tags="Background" id="fgKurtapimcUxmNT2mx8-37">
          <mxCell style="verticalAlign=middle;align=center;overflow=width;vsdxID=35;fillColor=#ff99cc;gradientColor=none;shape=stencil(nZBRDoQgDERP03+WHsHFe5iISyOCQdT19kIaIxq//Jtp3zTpAFaTaUYNUkwx+F6v1EYD+AUpyRkdKCYFqACrzgf9C352LfuxyWRWg1/yhT/nRE5IsZWuZtCSK8CPeI0e/hF+jV7AJM4PO7KWCyr390bSiNtEtQM=);strokeColor=#000000;strokeWidth=2;spacingTop=-3;spacingBottom=-3;spacingLeft=-3;spacingRight=-3;points=[];labelBackgroundColor=none;rounded=0;html=1;whiteSpace=wrap;" parent="1" vertex="1">
            <mxGeometry x="568" y="738" width="100" height="70" as="geometry" />
          </mxCell>
        </UserObject>
        <UserObject label="&lt;div style=&quot;font-size: 1px&quot;&gt;&lt;p style=&quot;text-align:center;margin-left:0;margin-right:0;margin-top:0px;margin-bottom:0px;text-indent:0;vertical-align:middle;direction:ltr;&quot;&gt;&lt;font style=&quot;font-size:12px;font-family:0;color:#000000;direction:ltr;letter-spacing:0px;line-height:120%;opacity:1&quot;&gt;上下文前置处理器&lt;br/&gt;&lt;/font&gt;&lt;font style=&quot;font-size:12px;font-family:0;color:#000000;direction:ltr;letter-spacing:0px;line-height:120%;opacity:1&quot;&gt;prepareContext&lt;/font&gt;&lt;/p&gt;&lt;/div&gt;" tags="Background" id="fgKurtapimcUxmNT2mx8-40">
          <mxCell style="verticalAlign=middle;align=center;overflow=width;vsdxID=38;fillColor=#ff99cc;gradientColor=none;shape=stencil(nZBRDoQgDERP03+WHsHFe5iISyOCQdT19kIaIxq//Jtp3zTpAFaTaUYNUkwx+F6v1EYD+AUpyRkdKCYFqACrzgf9C352LfuxyWRWg1/yhT/nRE5IsZWuZtCSK8CPeI0e/hF+jV7AJM4PO7KWCyr390bSiNtEtQM=);strokeColor=#000000;strokeWidth=2;spacingTop=-3;spacingBottom=-3;spacingLeft=-3;spacingRight=-3;points=[];labelBackgroundColor=none;rounded=0;html=1;whiteSpace=wrap;" parent="1" vertex="1">
            <mxGeometry x="568" y="852" width="129" height="71" as="geometry" />
          </mxCell>
        </UserObject>
        <UserObject label="&lt;div style=&quot;font-size: 1px&quot;&gt;&lt;p style=&quot;text-align:center;margin-left:0;margin-right:0;margin-top:0px;margin-bottom:0px;text-indent:0;vertical-align:middle;direction:ltr;&quot;&gt;&lt;font style=&quot;font-size:12px;font-family:0;color:#000000;direction:ltr;letter-spacing:0px;line-height:120%;opacity:1&quot;&gt;配置监听&lt;/font&gt;&lt;/p&gt;&lt;/div&gt;" tags="Background" id="fgKurtapimcUxmNT2mx8-42">
          <mxCell style="verticalAlign=middle;align=center;overflow=width;vsdxID=40;fillColor=#FFFFFF;gradientColor=none;shape=stencil(lVLLEoIwDPyaXjtt4wPOiP/BDEU6IsUCin8vNSgtII63bLLpJukSiOo8qSQRrG6MPsu7SpucwIEIocpcGtX0EYGYQJRpI09Gt2WKuEos00YXfbMvdNjHbIdgD0ScUQhfmSOSr22SWjL32T7sBMIN5fuBIFzC8FahSkc43NIAPHG2IszZuvRYF1828dVHPuIgpDv+j/4n8Z7A3Wcy1OIEzrEW2euXn8lP1p/t44v/+PU+GP2SqaJAu7n1qb/6FHoT4ic=);strokeColor=#66b2ff;strokeWidth=2;spacingTop=-3;spacingBottom=-3;spacingLeft=-3;spacingRight=-3;points=[];labelBackgroundColor=none;rounded=0;html=1;whiteSpace=wrap;" parent="1" vertex="1">
            <mxGeometry x="751" y="868" width="96" height="38" as="geometry" />
          </mxCell>
        </UserObject>
        <UserObject label="&lt;div style=&quot;font-size: 1px&quot;&gt;&lt;p style=&quot;text-align:center;margin-left:0;margin-right:0;margin-top:0px;margin-bottom:0px;text-indent:0;vertical-align:middle;direction:ltr;&quot;&gt;&lt;font style=&quot;font-size:12px;font-family:0;color:#000000;direction:ltr;letter-spacing:0px;line-height:120%;opacity:1&quot;&gt;environment&lt;br/&gt;&lt;/font&gt;&lt;font style=&quot;font-size:12px;font-family:0;color:#000000;direction:ltr;letter-spacing:0px;line-height:120%;opacity:1&quot;&gt;环境设置&lt;/font&gt;&lt;/p&gt;&lt;/div&gt;" tags="Background" id="fgKurtapimcUxmNT2mx8-43">
          <mxCell style="verticalAlign=middle;align=center;overflow=width;vsdxID=41;fillColor=#FFFFFF;gradientColor=none;shape=stencil(lZLbDoIwDIafZrdkdAT1GvE9SBiyiAzHUHx7mUXGBlniXQ9/+7VbCcv6uug4AdprJW/8JUpdE3YmAKKtuRJ6sgjLCcsqqfhVyaEt0e8KozTWXT5NhxHrqKkA+kbvEB2Tb+CC2sdQlEYbu2LXHQHdZM7COjs3akS7gp5Sh0oDyJiGoTYP+yu4ZCufJ4EoTv/BL4HfAMsu3kC7+MSBe9LwY2/A3t6bTVxy+J8nwx5IJZoG72ud9w9qCuExsvwD);strokeColor=#66b2ff;strokeWidth=2;spacingTop=-3;spacingBottom=-3;spacingLeft=-3;spacingRight=-3;points=[];labelBackgroundColor=none;rounded=0;html=1;whiteSpace=wrap;" parent="1" vertex="1">
            <mxGeometry x="454" y="969" width="100" height="51" as="geometry" />
          </mxCell>
        </UserObject>
        <UserObject label="&lt;div style=&quot;font-size: 1px&quot;&gt;&lt;p style=&quot;text-align:center;margin-left:0;margin-right:0;margin-top:0px;margin-bottom:0px;text-indent:0;vertical-align:middle;direction:ltr;&quot;&gt;&lt;font style=&quot;font-size:12px;font-family:0;color:#000000;direction:ltr;letter-spacing:0px;line-height:120%;opacity:1&quot;&gt;initialize初始化设置，可扩展&lt;/font&gt;&lt;/p&gt;&lt;/div&gt;" tags="Background" id="fgKurtapimcUxmNT2mx8-44">
          <mxCell style="verticalAlign=middle;align=center;overflow=width;vsdxID=42;fillColor=#FFFFFF;gradientColor=none;shape=stencil(lVLRDoIwDPyavS6jQ9RnxP8gYcgiMhxD8e9lFmUDssS3XnvdXbsSnnZV3goCrDNaXcVTFqYi/EQAZFMJLc0YEZ4RnpZKi4tWfVMgbnPLtNFNPewLA/Yx2wHshWhPD/EncUbuvc8Ly418sg8HQMjpLp4I4BKmt2rZOLrHhMaJp80CwhELS8912B7EF5/pkxmgUfKP/C/xNeCOs/C06cDZ1SY7vPiV/GL61Ty+ePjPx2A+llLWNd6aW18e15jCw+TZGw==);strokeColor=#66b2ff;strokeWidth=2;spacingTop=-3;spacingBottom=-3;spacingLeft=-3;spacingRight=-3;points=[];labelBackgroundColor=none;rounded=0;html=1;whiteSpace=wrap;" parent="1" vertex="1">
            <mxGeometry x="576" y="969" width="113" height="51" as="geometry" />
          </mxCell>
        </UserObject>
        <UserObject label="&lt;div style=&quot;font-size: 1px&quot;&gt;&lt;p style=&quot;text-align:center;margin-left:0;margin-right:0;margin-top:0px;margin-bottom:0px;text-indent:0;vertical-align:middle;direction:ltr;&quot;&gt;&lt;font style=&quot;font-size:12px;font-family:0;color:#000000;direction:ltr;letter-spacing:0px;line-height:120%;opacity:1&quot;&gt;资源获取并load&lt;/font&gt;&lt;/p&gt;&lt;/div&gt;" tags="Background" id="fgKurtapimcUxmNT2mx8-45">
          <mxCell style="verticalAlign=middle;align=center;overflow=width;vsdxID=43;fillColor=#FFFFFF;gradientColor=none;shape=stencil(lVLRDoIwDPyavS6jQ5RnhP8gYcgiMhyg+Pcyi7IBWeJbr73url0JT7oqbwUB1vVaXcVTFn1F+JkAyKYSWvZTRHhKeFIqLS5aDU2BuM0N00Q39TAvjNjHTAewF6IjPYWfRIbc+5AXhhu4ZBeOgDCkLJwJYBPmt2rZWLrxgcaRo808wgHzSy912B/EFV/osxmgQfSP/C/xNWCPs/K068Da1S7bv/iN/Gr6zTyuuP/Pp2A5llLWNd6aXV8f15TCw+TpGw==);strokeColor=#66b2ff;strokeWidth=2;spacingTop=-3;spacingBottom=-3;spacingLeft=-3;spacingRight=-3;points=[];labelBackgroundColor=none;rounded=0;html=1;whiteSpace=wrap;" parent="1" vertex="1">
            <mxGeometry x="711" y="969" width="99" height="51" as="geometry" />
          </mxCell>
        </UserObject>
        <UserObject label="&lt;div style=&quot;font-size: 1px&quot;&gt;&lt;p style=&quot;text-align:center;margin-left:0;margin-right:0;margin-top:0px;margin-bottom:0px;text-indent:0;vertical-align:middle;direction:ltr;&quot;&gt;&lt;font style=&quot;font-size:12px;font-family:0;color:#000000;direction:ltr;letter-spacing:0px;line-height:120%;opacity:1&quot;&gt;上下文刷新&lt;br/&gt;&lt;/font&gt;&lt;font style=&quot;font-size:12px;font-family:0;color:#000000;direction:ltr;letter-spacing:0px;line-height:120%;opacity:1&quot;&gt;refershContext&lt;/font&gt;&lt;/p&gt;&lt;/div&gt;" tags="Background" id="fgKurtapimcUxmNT2mx8-46">
          <mxCell style="verticalAlign=middle;align=center;overflow=width;vsdxID=44;fillColor=#ff99cc;gradientColor=none;shape=stencil(nZBRDoQgDERP03+WHsHFe5iISyOCQdT19kIaIxq//Jtp3zTpAFaTaUYNUkwx+F6v1EYD+AUpyRkdKCYFqACrzgf9C352LfuxyWRWg1/yhT/nRE5IsZWuZtCSK8CPeI0e/hF+jV7AJM4PO7KWCyr390bSiNtEtQM=);strokeColor=#000000;strokeWidth=2;spacingTop=-3;spacingBottom=-3;spacingLeft=-3;spacingRight=-3;points=[];labelBackgroundColor=none;rounded=0;html=1;whiteSpace=wrap;" parent="1" vertex="1">
            <mxGeometry x="151" y="785" width="120" height="67" as="geometry" />
          </mxCell>
        </UserObject>
        <UserObject label="&lt;div style=&quot;font-size: 1px&quot;&gt;&lt;p style=&quot;text-align:center;margin-left:0;margin-right:0;margin-top:0px;margin-bottom:0px;text-indent:0;vertical-align:middle;direction:ltr;&quot;&gt;&lt;font style=&quot;font-size:12px;font-family:0;color:#000000;direction:ltr;letter-spacing:0px;line-height:120%;opacity:1&quot;&gt;bean&lt;br/&gt;&lt;/font&gt;&lt;font style=&quot;font-size:12px;font-family:0;color:#000000;direction:ltr;letter-spacing:0px;line-height:120%;opacity:1&quot;&gt;工厂加载&lt;/font&gt;&lt;/p&gt;&lt;/div&gt;" tags="Background" id="fgKurtapimcUxmNT2mx8-48">
          <mxCell style="verticalAlign=middle;align=center;overflow=width;vsdxID=46;fillColor=#FFFFFF;gradientColor=none;shape=stencil(lZLbDoIwDIafZrdkdAT1GvE9SBiyiAzHUHx7mUXGBlniXQ9/+7VbCcv6uug4AdprJW/8JUpdE3YmAKKtuRJ6sgjLCcsqqfhVyaEt0e8KozTWXT5NhxHrqKkA+kbvEB2Tb+CC2sdQlEYbu2LXHQHdZM7COjs3akS7gp5Sh0oDyJiGoTYP+yu4ZCufJ4EoTv/BL4HfAMsu3kC7+MSBe9LwY2/A3t6bTVxy+J8nwx5IJZoG72ud9w9qCuExsvwD);strokeColor=#66b2ff;strokeWidth=2;spacingTop=-3;spacingBottom=-3;spacingLeft=-3;spacingRight=-3;points=[];labelBackgroundColor=none;rounded=0;html=1;whiteSpace=wrap;" parent="1" vertex="1">
            <mxGeometry x="43" y="909" width="100" height="51" as="geometry" />
          </mxCell>
        </UserObject>
        <UserObject label="&lt;div style=&quot;font-size: 1px&quot;&gt;&lt;p style=&quot;text-align:center;margin-left:0;margin-right:0;margin-top:0px;margin-bottom:0px;text-indent:0;vertical-align:middle;direction:ltr;&quot;&gt;&lt;font style=&quot;font-size:12px;font-family:0;color:#000000;direction:ltr;letter-spacing:0px;line-height:120%;opacity:1&quot;&gt;通过工厂加载&lt;br/&gt;&lt;/font&gt;&lt;font style=&quot;font-size:12px;font-family:0;color:#000000;direction:ltr;letter-spacing:0px;line-height:120%;opacity:1&quot;&gt;Bean&lt;/font&gt;&lt;/p&gt;&lt;/div&gt;" tags="Background" id="fgKurtapimcUxmNT2mx8-49">
          <mxCell style="verticalAlign=middle;align=center;overflow=width;vsdxID=47;fillColor=#FFFFFF;gradientColor=none;shape=stencil(lVLRDoIwDPyavS6jQ9RnxP8gYcgiMhxD8e9lFmUDssS3XnvdXbsSnnZV3goCrDNaXcVTFqYi/EQAZFMJLc0YEZ4RnpZKi4tWfVMgbnPLtNFNPewLA/Yx2wHshWhPD/EncUbuvc8Ly418sg8HQMjpLp4I4BKmt2rZOLrHhMaJp80CwhELS8912B7EF5/pkxmgUfKP/C/xNeCOs/C06cDZ1SY7vPiV/GL61Ty+ePjPx2A+llLWNd6aW18e15jCw+TZGw==);strokeColor=#66b2ff;strokeWidth=2;spacingTop=-3;spacingBottom=-3;spacingLeft=-3;spacingRight=-3;points=[];labelBackgroundColor=none;rounded=0;html=1;whiteSpace=wrap;" parent="1" vertex="1">
            <mxGeometry x="154" y="909" width="113" height="51" as="geometry" />
          </mxCell>
        </UserObject>
        <UserObject label="&lt;div style=&quot;font-size: 1px&quot;&gt;&lt;p style=&quot;text-align:center;margin-left:0;margin-right:0;margin-top:0px;margin-bottom:0px;text-indent:0;vertical-align:middle;direction:ltr;&quot;&gt;&lt;font style=&quot;font-size:12px;font-family:0;color:#000000;direction:ltr;letter-spacing:0px;line-height:120%;opacity:1&quot;&gt;刷新生命周期&lt;/font&gt;&lt;/p&gt;&lt;/div&gt;" tags="Background" id="fgKurtapimcUxmNT2mx8-50">
          <mxCell style="verticalAlign=middle;align=center;overflow=width;vsdxID=48;fillColor=#FFFFFF;gradientColor=none;shape=stencil(lVLRDoIwDPyavS6jQ5RnhP8gYcgiMhyg+Pcyi7IBWeJbr73url0JT7oqbwUB1vVaXcVTFn1F+JkAyKYSWvZTRHhKeFIqLS5aDU2BuM0N00Q39TAvjNjHTAewF6IjPYWfRIbc+5AXhhu4ZBeOgDCkLJwJYBPmt2rZWLrxgcaRo808wgHzSy912B/EFV/osxmgQfSP/C/xNWCPs/K068Da1S7bv/iN/Gr6zTyuuP/Pp2A5llLWNd6aXV8f15TCw+TpGw==);strokeColor=#66b2ff;strokeWidth=2;spacingTop=-3;spacingBottom=-3;spacingLeft=-3;spacingRight=-3;points=[];labelBackgroundColor=none;rounded=0;html=1;whiteSpace=wrap;" parent="1" vertex="1">
            <mxGeometry x="280" y="909" width="99" height="51" as="geometry" />
          </mxCell>
        </UserObject>
        <UserObject label="&lt;div style=&quot;font-size: 1px&quot;&gt;&lt;p style=&quot;text-align:center;margin-left:0;margin-right:0;margin-top:0px;margin-bottom:0px;text-indent:0;vertical-align:middle;direction:ltr;&quot;&gt;&lt;font style=&quot;font-size:12px;font-family:0;color:#000000;direction:ltr;letter-spacing:0px;line-height:120%;opacity:1&quot;&gt;上下文后置结束处理&lt;br/&gt;&lt;/font&gt;&lt;font style=&quot;font-size:12px;font-family:0;color:#000000;direction:ltr;letter-spacing:0px;line-height:120%;opacity:1&quot;&gt;afterRefersh&lt;/font&gt;&lt;/p&gt;&lt;/div&gt;" tags="Background" id="fgKurtapimcUxmNT2mx8-51">
          <mxCell style="verticalAlign=middle;align=center;overflow=width;vsdxID=49;fillColor=#ff99cc;gradientColor=none;shape=stencil(nZBRDoQgDERP03+WHsHFe5iISyOCQdT19kIaIxq//Jtp3zTpAFaTaUYNUkwx+F6v1EYD+AUpyRkdKCYFqACrzgf9C352LfuxyWRWg1/yhT/nRE5IsZWuZtCSK8CPeI0e/hF+jV7AJM4PO7KWCyr390bSiNtEtQM=);strokeColor=#000000;strokeWidth=2;spacingTop=-3;spacingBottom=-3;spacingLeft=-3;spacingRight=-3;points=[];labelBackgroundColor=none;rounded=0;html=1;whiteSpace=wrap;" parent="1" vertex="1">
            <mxGeometry x="562" y="1075" width="150" height="54" as="geometry" />
          </mxCell>
        </UserObject>
        <UserObject label="&lt;div style=&quot;font-size: 1px&quot;&gt;&lt;p style=&quot;text-align:center;margin-left:0;margin-right:0;margin-top:0px;margin-bottom:0px;text-indent:0;vertical-align:middle;direction:ltr;&quot;&gt;&lt;font style=&quot;font-size:12px;font-family:0;color:#000000;direction:ltr;letter-spacing:0px;line-height:120%;opacity:1&quot;&gt;计时器结束&lt;br/&gt;&lt;/font&gt;&lt;font style=&quot;font-size:12px;font-family:0;color:#000000;direction:ltr;letter-spacing:0px;line-height:120%;opacity:1&quot;&gt;监听结束&lt;/font&gt;&lt;/p&gt;&lt;/div&gt;" tags="Background" id="fgKurtapimcUxmNT2mx8-53">
          <mxCell style="verticalAlign=middle;align=center;overflow=width;vsdxID=51;fillColor=#FFFFFF;gradientColor=none;shape=stencil(fVLLEoIwDPyaXjslGVHOiP/BDEU6IsUCin8vNSgtML3lsenupmGYdlXeSgai642+yZcq+orhmQGoppJG9VPEMGOYltrIq9FDU1De5hZpo7t+2hdGmhN2AsSbspjD4Vu4EPYx5IXFRj7YT0egFHkCMwBcwPxWrRqHN4m5OHncIkAciTD10od9Iz75Ap/FID+GfG/o/4WfANfOStOuAmdXu+jw4jf0K/cbPz55+M+nYDmWUtU13ZrbXx/XVKLDxOwD);strokeColor=#000000;strokeWidth=2;spacingTop=-3;spacingBottom=-3;spacingLeft=-3;spacingRight=-3;points=[];labelBackgroundColor=none;rounded=0;html=1;whiteSpace=wrap;" parent="1" vertex="1">
            <mxGeometry x="776" y="1070" width="102" height="64" as="geometry" />
          </mxCell>
        </UserObject>
        <UserObject label="&lt;div style=&quot;font-size: 1px&quot;&gt;&lt;p style=&quot;text-align:center;margin-left:0;margin-right:0;margin-top:0px;margin-bottom:0px;text-indent:0;vertical-align:middle;direction:ltr;&quot;&gt;&lt;font style=&quot;font-size:12px;font-family:0;color:#000000;direction:ltr;letter-spacing:0px;line-height:120%;opacity:1&quot;&gt;发布应用上下文启动&lt;/font&gt;&lt;/p&gt;&lt;/div&gt;" tags="Background" id="fgKurtapimcUxmNT2mx8-54">
          <mxCell style="verticalAlign=middle;align=center;overflow=width;vsdxID=52;fillColor=#ff99cc;gradientColor=none;shape=stencil(nZBRDoQgDERP03+WHsHFe5iISyOCQdT19kIaIxq//Jtp3zTpAFaTaUYNUkwx+F6v1EYD+AUpyRkdKCYFqACrzgf9C352LfuxyWRWg1/yhT/nRE5IsZWuZtCSK8CPeI0e/hF+jV7AJM4PO7KWCyr390bSiNtEtQM=);strokeColor=#000000;strokeWidth=2;spacingTop=-3;spacingBottom=-3;spacingLeft=-3;spacingRight=-3;points=[];labelBackgroundColor=none;rounded=0;html=1;whiteSpace=wrap;" parent="1" vertex="1">
            <mxGeometry x="562" y="1176" width="150" height="47" as="geometry" />
          </mxCell>
        </UserObject>
        <UserObject label="&lt;div style=&quot;font-size: 1px&quot;&gt;&lt;p style=&quot;text-align:center;margin-left:0;margin-right:0;margin-top:0px;margin-bottom:0px;text-indent:0;vertical-align:middle;direction:ltr;&quot;&gt;&lt;font style=&quot;font-size:12px;font-family:0;color:#000000;direction:ltr;letter-spacing:0px;line-height:120%;opacity:1&quot;&gt;执行Runner运行器&lt;/font&gt;&lt;/p&gt;&lt;/div&gt;" tags="Background" id="fgKurtapimcUxmNT2mx8-56">
          <mxCell style="verticalAlign=middle;align=center;overflow=width;vsdxID=54;fillColor=#ff99cc;gradientColor=none;shape=stencil(nZBRDoQgDERP03+WHsHFe5iISyOCQdT19kIaIxq//Jtp3zTpAFaTaUYNUkwx+F6v1EYD+AUpyRkdKCYFqACrzgf9C352LfuxyWRWg1/yhT/nRE5IsZWuZtCSK8CPeI0e/hF+jV7AJM4PO7KWCyr390bSiNtEtQM=);strokeColor=#000000;strokeWidth=2;spacingTop=-3;spacingBottom=-3;spacingLeft=-3;spacingRight=-3;points=[];labelBackgroundColor=none;rounded=0;html=1;whiteSpace=wrap;" parent="1" vertex="1">
            <mxGeometry x="777" y="1176" width="133" height="47" as="geometry" />
          </mxCell>
        </UserObject>
        <UserObject label="&lt;div style=&quot;font-size: 1px&quot;&gt;&lt;p style=&quot;text-align:center;margin-left:0;margin-right:0;margin-top:0px;margin-bottom:0px;text-indent:0;vertical-align:middle;direction:ltr;&quot;&gt;&lt;font style=&quot;font-size:12px;font-family:0;color:#000000;direction:ltr;letter-spacing:0px;line-height:120%;opacity:1&quot;&gt;发布应用上下文就绪并返回&lt;/font&gt;&lt;/p&gt;&lt;/div&gt;" tags="Background" id="fgKurtapimcUxmNT2mx8-58">
          <mxCell style="verticalAlign=middle;align=center;overflow=width;vsdxID=56;fillColor=#ff99cc;gradientColor=none;shape=stencil(nZBRDoQgDERP03+WHsHFe5iISyOCQdT19kIaIxq//Jtp3zTpAFaTaUYNUkwx+F6v1EYD+AUpyRkdKCYFqACrzgf9C352LfuxyWRWg1/yhT/nRE5IsZWuZtCSK8CPeI0e/hF+jV7AJM4PO7KWCyr390bSiNtEtQM=);strokeColor=#000000;strokeWidth=2;spacingTop=-3;spacingBottom=-3;spacingLeft=-3;spacingRight=-3;points=[];labelBackgroundColor=none;rounded=0;html=1;whiteSpace=wrap;" parent="1" vertex="1">
            <mxGeometry x="777" y="1273" width="133" height="48" as="geometry" />
          </mxCell>
        </UserObject>
        <UserObject label="&lt;div style=&quot;font-size: 1px&quot;&gt;&lt;p style=&quot;text-align:center;margin-left:0;margin-right:0;margin-top:0px;margin-bottom:0px;text-indent:0;vertical-align:middle;direction:ltr;&quot;&gt;&lt;font style=&quot;font-size:12px;font-family:0;color:#000000;direction:ltr;letter-spacing:0px;line-height:120%;opacity:1&quot;&gt;SpringApplication启动结束&lt;/font&gt;&lt;/p&gt;&lt;/div&gt;" tags="Background" id="fgKurtapimcUxmNT2mx8-60">
          <mxCell style="verticalAlign=middle;align=center;overflow=width;vsdxID=58;fillColor=#33ff33;gradientColor=none;shape=stencil(hVLLDoMgEPwargR2U1PP1v6HiVhJrVh81P59pVgFNfS2j1lmZlmCSVtmjSDA2k6ru3jJvCsJXgiArEuhZTdFBFOCSaG0uGnV17nNm8wgTfRQg3lhtHPMTAB72yyiePoWrhb77LPcYLkP9tMRbMppzGcAuID5rUrWDm98piz2uFmAmLM/1Esfjo345Ct8FoM0Cvne0S+FnwDXzkbTsYJ1V4fo8OJ39Bv3Oz8+efjPp2A9lkJWlb01t789rqlkDxPTDw==);strokeColor=#000000;strokeWidth=2;spacingTop=-3;spacingBottom=-3;spacingLeft=-3;spacingRight=-3;points=[];labelBackgroundColor=none;rounded=0;html=1;whiteSpace=wrap;" parent="1" vertex="1">
            <mxGeometry x="430" y="1265.5" width="209" height="63" as="geometry" />
          </mxCell>
        </UserObject>
        <UserObject label="" tags="Background" id="fgKurtapimcUxmNT2mx8-62">
          <mxCell style="vsdxID=60;edgeStyle=none;startArrow=none;endArrow=block;startSize=5;endSize=5;strokeWidth=2;spacingTop=0;spacingBottom=0;spacingLeft=0;spacingRight=0;verticalAlign=middle;html=1;labelBackgroundColor=#ffffff;rounded=0;exitX=1;exitY=0.48936170212765956;exitDx=0;exitDy=0;exitPerimeter=0;entryX=0.5;entryY=0;entryDx=0;entryDy=0;entryPerimeter=0;" parent="1" source="fgKurtapimcUxmNT2mx8-10" target="fgKurtapimcUxmNT2mx8-11" edge="1">
            <mxGeometry relative="1" as="geometry">
              <mxPoint x="-200" y="128" as="offset" />
              <Array as="points">
                <mxPoint x="1106" y="387" />
              </Array>
            </mxGeometry>
          </mxCell>
        </UserObject>
        <UserObject label="" tags="Background" id="fgKurtapimcUxmNT2mx8-63">
          <mxCell style="vsdxID=61;edgeStyle=none;startArrow=none;endArrow=block;startSize=5;endSize=5;strokeWidth=2;spacingTop=0;spacingBottom=0;spacingLeft=0;spacingRight=0;verticalAlign=middle;html=1;labelBackgroundColor=#ffffff;rounded=0;exitX=1;exitY=0.49295774647887325;exitDx=0;exitDy=0;exitPerimeter=0;entryX=0;entryY=0.5;entryDx=0;entryDy=0;entryPerimeter=0;" parent="1" source="fgKurtapimcUxmNT2mx8-40" target="fgKurtapimcUxmNT2mx8-42" edge="1">
            <mxGeometry relative="1" as="geometry">
              <mxPoint x="-27" y="102" as="offset" />
              <Array as="points">
                <mxPoint x="724" y="887" />
                <mxPoint x="724" y="887" />
              </Array>
            </mxGeometry>
          </mxCell>
        </UserObject>
        <UserObject label="" tags="Background" id="fgKurtapimcUxmNT2mx8-64">
          <mxCell style="vsdxID=62;edgeStyle=none;startArrow=none;endArrow=block;startSize=5;endSize=5;strokeWidth=2;spacingTop=0;spacingBottom=0;spacingLeft=0;spacingRight=0;verticalAlign=middle;html=1;labelBackgroundColor=#ffffff;rounded=0;exitX=0.496;exitY=1;exitDx=0;exitDy=0;exitPerimeter=0;entryX=0;entryY=0.48936170212765956;entryDx=0;entryDy=0;entryPerimeter=0;" parent="1" source="fgKurtapimcUxmNT2mx8-5" target="fgKurtapimcUxmNT2mx8-10" edge="1">
            <mxGeometry relative="1" as="geometry">
              <mxPoint x="-43" y="101" as="offset" />
              <Array as="points">
                <mxPoint x="425" y="387.5" />
              </Array>
            </mxGeometry>
          </mxCell>
        </UserObject>
        <UserObject label="" tags="Background" id="fgKurtapimcUxmNT2mx8-65">
          <mxCell style="vsdxID=63;edgeStyle=none;startArrow=none;endArrow=block;startSize=5;endSize=5;strokeWidth=2;spacingTop=0;spacingBottom=0;spacingLeft=0;spacingRight=0;verticalAlign=middle;html=1;labelBackgroundColor=#ffffff;rounded=0;exitX=1;exitY=0.5;exitDx=0;exitDy=0;exitPerimeter=0;entryX=0;entryY=0.5;entryDx=0;entryDy=0;entryPerimeter=0;" parent="1" source="fgKurtapimcUxmNT2mx8-13" target="fgKurtapimcUxmNT2mx8-14" edge="1">
            <mxGeometry relative="1" as="geometry">
              <mxPoint x="-36" y="57" as="offset" />
              <Array as="points">
                <mxPoint x="880" y="171" />
                <mxPoint x="880" y="82" />
              </Array>
            </mxGeometry>
          </mxCell>
        </UserObject>
        <UserObject label="" tags="Background" id="fgKurtapimcUxmNT2mx8-66">
          <mxCell style="vsdxID=64;edgeStyle=none;startArrow=none;endArrow=block;startSize=5;endSize=5;strokeWidth=2;spacingTop=0;spacingBottom=0;spacingLeft=0;spacingRight=0;verticalAlign=middle;html=1;labelBackgroundColor=#ffffff;rounded=0;exitX=1;exitY=0.5;exitDx=0;exitDy=0;exitPerimeter=0;entryX=0;entryY=0.49295774647887325;entryDx=0;entryDy=0;entryPerimeter=0;" parent="1" source="fgKurtapimcUxmNT2mx8-5" target="fgKurtapimcUxmNT2mx8-8" edge="1">
            <mxGeometry relative="1" as="geometry">
              <mxPoint x="-65" y="108" as="offset" />
              <Array as="points">
                <mxPoint x="553" y="297" />
                <mxPoint x="553" y="310.5" />
              </Array>
            </mxGeometry>
          </mxCell>
        </UserObject>
        <UserObject label="" tags="Background" id="fgKurtapimcUxmNT2mx8-67">
          <mxCell style="vsdxID=65;edgeStyle=none;startArrow=none;endArrow=block;startSize=5;endSize=5;strokeWidth=2;spacingTop=0;spacingBottom=0;spacingLeft=0;spacingRight=0;verticalAlign=middle;html=1;labelBackgroundColor=#ffffff;rounded=0;exitX=0.49612403100775193;exitY=1;exitDx=0;exitDy=0;exitPerimeter=0;entryX=0.5050505050505051;entryY=0;entryDx=0;entryDy=0;entryPerimeter=0;" parent="1" source="fgKurtapimcUxmNT2mx8-40" target="fgKurtapimcUxmNT2mx8-45" edge="1">
            <mxGeometry relative="1" as="geometry">
              <mxPoint x="-64" y="124" as="offset" />
              <Array as="points">
                <mxPoint x="632" y="946" />
                <mxPoint x="760.5" y="946" />
              </Array>
            </mxGeometry>
          </mxCell>
        </UserObject>
        <UserObject label="" tags="Background" id="fgKurtapimcUxmNT2mx8-68">
          <mxCell style="vsdxID=66;edgeStyle=none;startArrow=none;endArrow=block;startSize=5;endSize=5;strokeWidth=2;spacingTop=0;spacingBottom=0;spacingLeft=0;spacingRight=0;verticalAlign=middle;html=1;labelBackgroundColor=#ffffff;rounded=0;exitX=0.5;exitY=1;exitDx=0;exitDy=0;exitPerimeter=0;entryX=0;entryY=0.49295774647887325;entryDx=0;entryDy=0;entryPerimeter=0;" parent="1" source="fgKurtapimcUxmNT2mx8-33" target="fgKurtapimcUxmNT2mx8-40" edge="1">
            <mxGeometry relative="1" as="geometry">
              <mxPoint y="147" as="offset" />
              <Array as="points">
                <mxPoint x="425" y="887.5" />
              </Array>
            </mxGeometry>
          </mxCell>
        </UserObject>
        <UserObject label="" tags="Background" id="fgKurtapimcUxmNT2mx8-69">
          <mxCell style="vsdxID=67;edgeStyle=none;startArrow=none;endArrow=block;startSize=5;endSize=5;strokeWidth=2;spacingTop=0;spacingBottom=0;spacingLeft=0;spacingRight=0;verticalAlign=middle;html=1;labelBackgroundColor=#ffffff;rounded=0;exitX=0.49748743718592964;exitY=1;exitDx=0;exitDy=0;exitPerimeter=0;entryX=0.496;entryY=0;entryDx=0;entryDy=0;entryPerimeter=0;" parent="1" source="fgKurtapimcUxmNT2mx8-4" target="fgKurtapimcUxmNT2mx8-5" edge="1">
            <mxGeometry relative="1" as="geometry">
              <mxPoint y="135" as="offset" />
              <Array as="points">
                <mxPoint x="425" y="224" />
                <mxPoint x="425" y="224" />
              </Array>
            </mxGeometry>
          </mxCell>
        </UserObject>
        <UserObject label="" tags="Background" id="fgKurtapimcUxmNT2mx8-70">
          <mxCell style="vsdxID=68;edgeStyle=none;startArrow=none;endArrow=block;startSize=5;endSize=5;strokeWidth=2;spacingTop=0;spacingBottom=0;spacingLeft=0;spacingRight=0;verticalAlign=middle;html=1;labelBackgroundColor=#ffffff;rounded=0;exitX=1;exitY=0.5;exitDx=0;exitDy=0;exitPerimeter=0;entryX=0;entryY=0.5;entryDx=0;entryDy=0;entryPerimeter=0;" parent="1" source="fgKurtapimcUxmNT2mx8-13" target="fgKurtapimcUxmNT2mx8-15" edge="1">
            <mxGeometry relative="1" as="geometry">
              <mxPoint x="-36" y="84" as="offset" />
              <Array as="points">
                <mxPoint x="880" y="171" />
                <mxPoint x="880" y="136" />
              </Array>
            </mxGeometry>
          </mxCell>
        </UserObject>
        <UserObject label="" tags="Background" id="fgKurtapimcUxmNT2mx8-71">
          <mxCell style="vsdxID=69;edgeStyle=none;startArrow=none;endArrow=block;startSize=5;endSize=5;strokeWidth=2;spacingTop=0;spacingBottom=0;spacingLeft=0;spacingRight=0;verticalAlign=middle;html=1;labelBackgroundColor=#ffffff;rounded=0;exitX=0.49707602339181284;exitY=1;exitDx=0;exitDy=0;exitPerimeter=0;entryX=0.49707602339181284;entryY=0;entryDx=0;entryDy=0;entryPerimeter=0;" parent="1" source="fgKurtapimcUxmNT2mx8-10" target="fgKurtapimcUxmNT2mx8-24" edge="1">
            <mxGeometry relative="1" as="geometry">
              <mxPoint y="119" as="offset" />
              <Array as="points">
                <mxPoint x="647" y="429.5" />
                <mxPoint x="647" y="429.5" />
              </Array>
            </mxGeometry>
          </mxCell>
        </UserObject>
        <UserObject label="" tags="Background" id="fgKurtapimcUxmNT2mx8-72">
          <mxCell style="vsdxID=70;edgeStyle=none;startArrow=none;endArrow=block;startSize=5;endSize=5;strokeWidth=2;spacingTop=0;spacingBottom=0;spacingLeft=0;spacingRight=0;verticalAlign=middle;html=1;labelBackgroundColor=#ffffff;rounded=0;exitX=0.496;exitY=1;exitDx=0;exitDy=0;exitPerimeter=0;entryX=0;entryY=0.5;entryDx=0;entryDy=0;entryPerimeter=0;" parent="1" source="fgKurtapimcUxmNT2mx8-5" target="fgKurtapimcUxmNT2mx8-31" edge="1">
            <mxGeometry relative="1" as="geometry">
              <mxPoint y="163" as="offset" />
              <Array as="points">
                <mxPoint x="425" y="530.25" />
              </Array>
            </mxGeometry>
          </mxCell>
        </UserObject>
        <UserObject label="" tags="Background" id="fgKurtapimcUxmNT2mx8-73">
          <mxCell style="vsdxID=71;edgeStyle=none;startArrow=none;endArrow=block;startSize=5;endSize=5;strokeWidth=2;spacingTop=0;spacingBottom=0;spacingLeft=0;spacingRight=0;verticalAlign=middle;html=1;labelBackgroundColor=#ffffff;rounded=0;exitX=0;exitY=0.5;exitDx=0;exitDy=0;exitPerimeter=0;entryX=1;entryY=0.49382716049382713;entryDx=0;entryDy=0;entryPerimeter=0;" parent="1" source="fgKurtapimcUxmNT2mx8-11" target="fgKurtapimcUxmNT2mx8-19" edge="1">
            <mxGeometry relative="1" as="geometry">
              <mxPoint x="34" y="102" as="offset" />
              <Array as="points">
                <mxPoint x="1015" y="457" />
                <mxPoint x="1015" y="457" />
              </Array>
            </mxGeometry>
          </mxCell>
        </UserObject>
        <UserObject label="" tags="Background" id="fgKurtapimcUxmNT2mx8-74">
          <mxCell style="vsdxID=72;edgeStyle=none;startArrow=none;endArrow=block;startSize=5;endSize=5;strokeWidth=2;spacingTop=0;spacingBottom=0;spacingLeft=0;spacingRight=0;verticalAlign=middle;html=1;labelBackgroundColor=#ffffff;rounded=0;exitX=1;exitY=0.48936170212765956;exitDx=0;exitDy=0;exitPerimeter=0;entryX=0;entryY=0.48936170212765956;entryDx=0;entryDy=0;entryPerimeter=0;" parent="1" source="fgKurtapimcUxmNT2mx8-54" target="fgKurtapimcUxmNT2mx8-56" edge="1">
            <mxGeometry relative="1" as="geometry">
              <mxPoint x="-33" y="102" as="offset" />
              <Array as="points">
                <mxPoint x="744.5" y="1199" />
                <mxPoint x="744.5" y="1199" />
              </Array>
            </mxGeometry>
          </mxCell>
        </UserObject>
        <UserObject label="" tags="Background" id="fgKurtapimcUxmNT2mx8-75">
          <mxCell style="vsdxID=73;edgeStyle=none;startArrow=none;endArrow=block;startSize=5;endSize=5;strokeWidth=2;spacingTop=0;spacingBottom=0;spacingLeft=0;spacingRight=0;verticalAlign=middle;html=1;labelBackgroundColor=#ffffff;rounded=0;exitX=1;exitY=0.5;exitDx=0;exitDy=0;exitPerimeter=0;entryX=0;entryY=0.5;entryDx=0;entryDy=0;entryPerimeter=0;" parent="1" source="fgKurtapimcUxmNT2mx8-51" target="fgKurtapimcUxmNT2mx8-53" edge="1">
            <mxGeometry relative="1" as="geometry">
              <mxPoint x="-32" y="102" as="offset" />
              <Array as="points">
                <mxPoint x="744" y="1102" />
                <mxPoint x="744" y="1102" />
              </Array>
            </mxGeometry>
          </mxCell>
        </UserObject>
        <UserObject label="" tags="Background" id="fgKurtapimcUxmNT2mx8-76">
          <mxCell style="vsdxID=74;edgeStyle=none;startArrow=none;endArrow=block;startSize=5;endSize=5;strokeWidth=2;spacingTop=0;spacingBottom=0;spacingLeft=0;spacingRight=0;verticalAlign=middle;html=1;labelBackgroundColor=#ffffff;rounded=0;exitX=0.5;exitY=1;exitDx=0;exitDy=0;exitPerimeter=0;entryX=0;entryY=0.5;entryDx=0;entryDy=0;entryPerimeter=0;" parent="1" source="fgKurtapimcUxmNT2mx8-33" target="fgKurtapimcUxmNT2mx8-51" edge="1">
            <mxGeometry relative="1" as="geometry">
              <mxPoint y="257" as="offset" />
              <Array as="points">
                <mxPoint x="425" y="1102" />
              </Array>
            </mxGeometry>
          </mxCell>
        </UserObject>
        <UserObject label="" tags="Background" id="fgKurtapimcUxmNT2mx8-77">
          <mxCell style="vsdxID=75;edgeStyle=none;startArrow=none;endArrow=block;startSize=5;endSize=5;strokeWidth=2;spacingTop=0;spacingBottom=0;spacingLeft=0;spacingRight=0;verticalAlign=middle;html=1;labelBackgroundColor=#ffffff;rounded=0;exitX=1;exitY=0.5;exitDx=0;exitDy=0;exitPerimeter=0;entryX=0;entryY=0.5;entryDx=0;entryDy=0;entryPerimeter=0;" parent="1" source="fgKurtapimcUxmNT2mx8-4" target="fgKurtapimcUxmNT2mx8-13" edge="1">
            <mxGeometry relative="1" as="geometry">
              <mxPoint x="-108" y="102" as="offset" />
              <Array as="points">
                <mxPoint x="632.5" y="171" />
                <mxPoint x="632.5" y="171" />
              </Array>
            </mxGeometry>
          </mxCell>
        </UserObject>
        <UserObject label="" tags="Background" id="fgKurtapimcUxmNT2mx8-78">
          <mxCell style="vsdxID=76;edgeStyle=none;startArrow=none;endArrow=block;startSize=5;endSize=5;strokeWidth=2;spacingTop=0;spacingBottom=0;spacingLeft=0;spacingRight=0;verticalAlign=middle;html=1;labelBackgroundColor=#ffffff;rounded=0;exitX=1;exitY=0.5;exitDx=0;exitDy=0;exitPerimeter=0;entryX=0.5;entryY=1;entryDx=0;entryDy=0;entryPerimeter=0;" parent="1" source="fgKurtapimcUxmNT2mx8-37" target="fgKurtapimcUxmNT2mx8-11" edge="1">
            <mxGeometry relative="1" as="geometry">
              <mxPoint x="-355" y="-171" as="offset" />
              <Array as="points">
                <mxPoint x="1106" y="773" />
              </Array>
            </mxGeometry>
          </mxCell>
        </UserObject>
        <UserObject label="" tags="Background" id="fgKurtapimcUxmNT2mx8-79">
          <mxCell style="vsdxID=77;edgeStyle=none;startArrow=none;endArrow=block;startSize=5;endSize=5;strokeWidth=2;spacingTop=0;spacingBottom=0;spacingLeft=0;spacingRight=0;verticalAlign=middle;html=1;labelBackgroundColor=#ffffff;rounded=0;exitX=0.5;exitY=1;exitDx=0;exitDy=0;exitPerimeter=0;entryX=0.5;entryY=0;entryDx=0;entryDy=0;entryPerimeter=0;" parent="1" source="fgKurtapimcUxmNT2mx8-20" target="fgKurtapimcUxmNT2mx8-21" edge="1">
            <mxGeometry relative="1" as="geometry">
              <mxPoint y="117" as="offset" />
              <Array as="points">
                <mxPoint x="923" y="593.5" />
                <mxPoint x="923" y="593.5" />
              </Array>
            </mxGeometry>
          </mxCell>
        </UserObject>
        <UserObject label="" tags="Background" id="fgKurtapimcUxmNT2mx8-80">
          <mxCell style="vsdxID=78;edgeStyle=none;startArrow=none;endArrow=block;startSize=5;endSize=5;strokeWidth=2;spacingTop=0;spacingBottom=0;spacingLeft=0;spacingRight=0;verticalAlign=middle;html=1;labelBackgroundColor=#ffffff;rounded=0;exitX=1;exitY=0.5;exitDx=0;exitDy=0;exitPerimeter=0;entryX=0;entryY=0.5;entryDx=0;entryDy=0;entryPerimeter=0;" parent="1" source="fgKurtapimcUxmNT2mx8-3" target="fgKurtapimcUxmNT2mx8-4" edge="1">
            <mxGeometry relative="1" as="geometry">
              <mxPoint x="-32" y="102" as="offset" />
              <Array as="points">
                <mxPoint x="294.5" y="170" />
                <mxPoint x="294.5" y="171" />
              </Array>
            </mxGeometry>
          </mxCell>
        </UserObject>
        <UserObject label="" tags="Background" id="fgKurtapimcUxmNT2mx8-81">
          <mxCell style="vsdxID=79;edgeStyle=none;startArrow=none;endArrow=block;startSize=5;endSize=5;strokeWidth=2;spacingTop=0;spacingBottom=0;spacingLeft=0;spacingRight=0;verticalAlign=middle;html=1;labelBackgroundColor=#ffffff;rounded=0;exitX=0.496;exitY=1;exitDx=0;exitDy=0;exitPerimeter=0;entryX=0.5;entryY=0;entryDx=0;entryDy=0;entryPerimeter=0;" parent="1" source="fgKurtapimcUxmNT2mx8-5" target="fgKurtapimcUxmNT2mx8-33" edge="1">
            <mxGeometry relative="1" as="geometry">
              <mxPoint y="236" as="offset" />
              <Array as="points">
                <mxPoint x="425" y="471" />
                <mxPoint x="425" y="471" />
              </Array>
            </mxGeometry>
          </mxCell>
        </UserObject>
        <UserObject label="" tags="Background" id="fgKurtapimcUxmNT2mx8-82">
          <mxCell style="vsdxID=80;edgeStyle=none;startArrow=none;endArrow=block;startSize=5;endSize=5;strokeWidth=2;spacingTop=0;spacingBottom=0;spacingLeft=0;spacingRight=0;verticalAlign=middle;html=1;labelBackgroundColor=#ffffff;rounded=0;exitX=0.5;exitY=1;exitDx=0;exitDy=0;exitPerimeter=0;entryX=1;entryY=0.4909090909090909;entryDx=0;entryDy=0;entryPerimeter=0;" parent="1" source="fgKurtapimcUxmNT2mx8-26" target="fgKurtapimcUxmNT2mx8-28" edge="1">
            <mxGeometry relative="1" as="geometry">
              <mxPoint y="123" as="offset" />
              <Array as="points">
                <mxPoint x="211" y="501.5" />
              </Array>
            </mxGeometry>
          </mxCell>
        </UserObject>
        <UserObject label="" tags="Background" id="fgKurtapimcUxmNT2mx8-83">
          <mxCell style="vsdxID=81;edgeStyle=none;startArrow=none;endArrow=block;startSize=5;endSize=5;strokeWidth=2;spacingTop=0;spacingBottom=0;spacingLeft=0;spacingRight=0;verticalAlign=middle;html=1;labelBackgroundColor=#ffffff;rounded=0;exitX=0.5;exitY=0.8765432098765432;exitDx=0;exitDy=0;exitPerimeter=0;entryX=0.5;entryY=0;entryDx=0;entryDy=0;entryPerimeter=0;" parent="1" source="fgKurtapimcUxmNT2mx8-19" target="fgKurtapimcUxmNT2mx8-20" edge="1">
            <mxGeometry relative="1" as="geometry">
              <mxPoint y="122" as="offset" />
              <Array as="points">
                <mxPoint x="923" y="508.33" />
                <mxPoint x="923" y="508.33" />
              </Array>
            </mxGeometry>
          </mxCell>
        </UserObject>
        <UserObject label="" tags="Background" id="fgKurtapimcUxmNT2mx8-84">
          <mxCell style="vsdxID=82;startArrow=none;endArrow=block;startSize=5;endSize=5;strokeWidth=2;spacingTop=0;spacingBottom=0;spacingLeft=0;spacingRight=0;verticalAlign=middle;html=1;labelBackgroundColor=#ffffff;rounded=0;exitX=0;exitY=0.5;exitDx=0;exitDy=0;exitPerimeter=0;entryX=1.0047846889952152;entryY=0.5079365079365079;entryDx=0;entryDy=0;entryPerimeter=0;" parent="1" source="fgKurtapimcUxmNT2mx8-58" target="fgKurtapimcUxmNT2mx8-60" edge="1">
            <mxGeometry relative="1" as="geometry">
              <mxPoint x="96" y="102" as="offset" />
            </mxGeometry>
          </mxCell>
        </UserObject>
        <UserObject label="" tags="Background" id="fgKurtapimcUxmNT2mx8-85">
          <mxCell style="vsdxID=83;edgeStyle=none;startArrow=none;endArrow=block;startSize=5;endSize=5;strokeWidth=2;spacingTop=0;spacingBottom=0;spacingLeft=0;spacingRight=0;verticalAlign=middle;html=1;labelBackgroundColor=#ffffff;rounded=0;exitX=0.5;exitY=1;exitDx=0;exitDy=0;exitPerimeter=0;entryX=0.494949494949495;entryY=0;entryDx=0;entryDy=0;entryPerimeter=0;" parent="1" source="fgKurtapimcUxmNT2mx8-46" target="fgKurtapimcUxmNT2mx8-50" edge="1">
            <mxGeometry relative="1" as="geometry">
              <mxPoint x="-60" y="130" as="offset" />
              <Array as="points">
                <mxPoint x="211" y="880.5" />
                <mxPoint x="329.5" y="880.5" />
              </Array>
            </mxGeometry>
          </mxCell>
        </UserObject>
        <UserObject label="" tags="Background" id="fgKurtapimcUxmNT2mx8-86">
          <mxCell style="vsdxID=84;edgeStyle=none;startArrow=none;endArrow=block;startSize=5;endSize=5;strokeWidth=2;spacingTop=0;spacingBottom=0;spacingLeft=0;spacingRight=0;verticalAlign=middle;html=1;labelBackgroundColor=#ffffff;rounded=0;exitX=0.496;exitY=1;exitDx=0;exitDy=0;exitPerimeter=0;entryX=1;entryY=0.4634146341463415;entryDx=0;entryDy=0;entryPerimeter=0;" parent="1" source="fgKurtapimcUxmNT2mx8-5" target="fgKurtapimcUxmNT2mx8-26" edge="1">
            <mxGeometry relative="1" as="geometry">
              <mxPoint x="17" y="101" as="offset" />
              <Array as="points">
                <mxPoint x="425" y="403.33" />
              </Array>
            </mxGeometry>
          </mxCell>
        </UserObject>
        <UserObject label="" tags="Background" id="fgKurtapimcUxmNT2mx8-87">
          <mxCell style="vsdxID=85;edgeStyle=none;startArrow=none;endArrow=block;startSize=5;endSize=5;strokeWidth=2;spacingTop=0;spacingBottom=0;spacingLeft=0;spacingRight=0;verticalAlign=middle;html=1;labelBackgroundColor=#ffffff;rounded=0;exitX=0.5;exitY=1;exitDx=0;exitDy=0;exitPerimeter=0;entryX=1;entryY=0.4925373134328358;entryDx=0;entryDy=0;entryPerimeter=0;" parent="1" source="fgKurtapimcUxmNT2mx8-33" target="fgKurtapimcUxmNT2mx8-46" edge="1">
            <mxGeometry relative="1" as="geometry">
              <mxPoint y="106" as="offset" />
              <Array as="points">
                <mxPoint x="425" y="818.5" />
              </Array>
            </mxGeometry>
          </mxCell>
        </UserObject>
        <UserObject label="" tags="Background" id="fgKurtapimcUxmNT2mx8-88">
          <mxCell style="vsdxID=86;edgeStyle=none;startArrow=none;endArrow=block;startSize=5;endSize=5;strokeWidth=2;spacingTop=0;spacingBottom=0;spacingLeft=0;spacingRight=0;verticalAlign=middle;html=1;labelBackgroundColor=#ffffff;rounded=0;exitX=1;exitY=0.48936170212765956;exitDx=0;exitDy=0;exitPerimeter=0;entryX=1;entryY=0.5;entryDx=0;entryDy=0;entryPerimeter=0;" parent="1" source="fgKurtapimcUxmNT2mx8-56" target="fgKurtapimcUxmNT2mx8-58" edge="1">
            <mxGeometry relative="1" as="geometry">
              <mxPoint x="-30" y="150" as="offset" />
              <Array as="points">
                <mxPoint x="940" y="1199" />
                <mxPoint x="940" y="1296.5" />
              </Array>
            </mxGeometry>
          </mxCell>
        </UserObject>
        <UserObject label="" tags="Background" id="fgKurtapimcUxmNT2mx8-89">
          <mxCell style="vsdxID=87;edgeStyle=none;startArrow=none;endArrow=block;startSize=5;endSize=5;strokeWidth=2;spacingTop=0;spacingBottom=0;spacingLeft=0;spacingRight=0;verticalAlign=middle;html=1;labelBackgroundColor=#ffffff;rounded=0;exitX=0.5;exitY=1;exitDx=0;exitDy=0;exitPerimeter=0;entryX=0.5;entryY=0;entryDx=0;entryDy=0;entryPerimeter=0;" parent="1" source="fgKurtapimcUxmNT2mx8-46" target="fgKurtapimcUxmNT2mx8-48" edge="1">
            <mxGeometry relative="1" as="geometry">
              <mxPoint x="59" y="130" as="offset" />
              <Array as="points">
                <mxPoint x="211" y="880.5" />
                <mxPoint x="93" y="880.5" />
              </Array>
            </mxGeometry>
          </mxCell>
        </UserObject>
        <UserObject label="" tags="Background" id="fgKurtapimcUxmNT2mx8-90">
          <mxCell style="vsdxID=88;edgeStyle=none;startArrow=none;endArrow=block;startSize=5;endSize=5;strokeWidth=2;spacingTop=0;spacingBottom=0;spacingLeft=0;spacingRight=0;verticalAlign=middle;html=1;labelBackgroundColor=#ffffff;rounded=0;exitX=1;exitY=0.5;exitDx=0;exitDy=0;exitPerimeter=0;entryX=1;entryY=0.5;entryDx=0;entryDy=0;entryPerimeter=0;" parent="1" source="fgKurtapimcUxmNT2mx8-15" target="fgKurtapimcUxmNT2mx8-11" edge="1">
            <mxGeometry relative="1" as="geometry">
              <mxPoint x="-113" y="303" as="offset" />
              <Array as="points">
                <mxPoint x="1193.34" y="136" />
                <mxPoint x="1193.34" y="457.5" />
              </Array>
            </mxGeometry>
          </mxCell>
        </UserObject>
        <UserObject label="" tags="Background" id="fgKurtapimcUxmNT2mx8-91">
          <mxCell style="vsdxID=89;edgeStyle=none;startArrow=none;endArrow=block;startSize=5;endSize=5;strokeWidth=2;spacingTop=0;spacingBottom=0;spacingLeft=0;spacingRight=0;verticalAlign=middle;html=1;labelBackgroundColor=#ffffff;rounded=0;exitX=0.49612403100775193;exitY=1;exitDx=0;exitDy=0;exitPerimeter=0;entryX=0.504424778761062;entryY=0;entryDx=0;entryDy=0;entryPerimeter=0;" parent="1" source="fgKurtapimcUxmNT2mx8-40" target="fgKurtapimcUxmNT2mx8-44" edge="1">
            <mxGeometry relative="1" as="geometry">
              <mxPoint y="124" as="offset" />
              <Array as="points">
                <mxPoint x="632" y="946" />
                <mxPoint x="632.5" y="946" />
              </Array>
            </mxGeometry>
          </mxCell>
        </UserObject>
        <UserObject label="" tags="Background" id="fgKurtapimcUxmNT2mx8-92">
          <mxCell style="vsdxID=90;edgeStyle=none;startArrow=none;endArrow=block;startSize=5;endSize=5;strokeWidth=2;spacingTop=0;spacingBottom=0;spacingLeft=0;spacingRight=0;verticalAlign=middle;html=1;labelBackgroundColor=#ffffff;rounded=0;exitX=0.5;exitY=1;exitDx=0;exitDy=0;exitPerimeter=0;entryX=0.5;entryY=0;entryDx=0;entryDy=0;entryPerimeter=0;" parent="1" source="fgKurtapimcUxmNT2mx8-21" target="fgKurtapimcUxmNT2mx8-22" edge="1">
            <mxGeometry relative="1" as="geometry">
              <mxPoint y="113" as="offset" />
              <Array as="points">
                <mxPoint x="923" y="692" />
                <mxPoint x="923" y="692" />
              </Array>
            </mxGeometry>
          </mxCell>
        </UserObject>
        <UserObject label="" tags="Background" id="fgKurtapimcUxmNT2mx8-93">
          <mxCell style="vsdxID=91;edgeStyle=none;startArrow=none;endArrow=block;startSize=5;endSize=5;strokeWidth=2;spacingTop=0;spacingBottom=0;spacingLeft=0;spacingRight=0;verticalAlign=middle;html=1;labelBackgroundColor=#ffffff;rounded=0;exitX=0.5;exitY=1;exitDx=0;exitDy=0;exitPerimeter=0;entryX=0;entryY=0.5;entryDx=0;entryDy=0;entryPerimeter=0;" parent="1" source="fgKurtapimcUxmNT2mx8-33" target="fgKurtapimcUxmNT2mx8-37" edge="1">
            <mxGeometry relative="1" as="geometry">
              <mxPoint x="-12" y="101" as="offset" />
              <Array as="points">
                <mxPoint x="425" y="773" />
              </Array>
            </mxGeometry>
          </mxCell>
        </UserObject>
        <UserObject label="" tags="Background" id="fgKurtapimcUxmNT2mx8-94">
          <mxCell style="vsdxID=92;edgeStyle=none;startArrow=none;endArrow=block;startSize=5;endSize=5;strokeWidth=2;spacingTop=0;spacingBottom=0;spacingLeft=0;spacingRight=0;verticalAlign=middle;html=1;labelBackgroundColor=#ffffff;rounded=0;exitX=0.5;exitY=1;exitDx=0;exitDy=0;exitPerimeter=0;entryX=0;entryY=0.48936170212765956;entryDx=0;entryDy=0;entryPerimeter=0;" parent="1" source="fgKurtapimcUxmNT2mx8-33" target="fgKurtapimcUxmNT2mx8-54" edge="1">
            <mxGeometry relative="1" as="geometry">
              <mxPoint y="306" as="offset" />
              <Array as="points">
                <mxPoint x="425" y="1199.5" />
              </Array>
            </mxGeometry>
          </mxCell>
        </UserObject>
        <UserObject label="" tags="Background" id="fgKurtapimcUxmNT2mx8-95">
          <mxCell style="vsdxID=93;edgeStyle=none;startArrow=none;endArrow=block;startSize=5;endSize=5;strokeWidth=2;spacingTop=0;spacingBottom=0;spacingLeft=0;spacingRight=0;verticalAlign=middle;html=1;labelBackgroundColor=#ffffff;rounded=0;exitX=1;exitY=0.5;exitDx=0;exitDy=0;exitPerimeter=0;entryX=0;entryY=0.5;entryDx=0;entryDy=0;entryPerimeter=0;" parent="1" source="fgKurtapimcUxmNT2mx8-33" target="fgKurtapimcUxmNT2mx8-35" edge="1">
            <mxGeometry relative="1" as="geometry">
              <mxPoint x="-43" y="102" as="offset" />
              <Array as="points">
                <mxPoint x="518.25" y="630" />
                <mxPoint x="518.25" y="630" />
              </Array>
            </mxGeometry>
          </mxCell>
        </UserObject>
        <UserObject label="" tags="Background" id="fgKurtapimcUxmNT2mx8-96">
          <mxCell style="vsdxID=94;edgeStyle=none;startArrow=none;endArrow=block;startSize=5;endSize=5;strokeWidth=2;spacingTop=0;spacingBottom=0;spacingLeft=0;spacingRight=0;verticalAlign=middle;html=1;labelBackgroundColor=#ffffff;rounded=0;exitX=0.5;exitY=1;exitDx=0;exitDy=0;exitPerimeter=0;entryX=1;entryY=0.4888888888888889;entryDx=0;entryDy=0;entryPerimeter=0;" parent="1" source="fgKurtapimcUxmNT2mx8-26" target="fgKurtapimcUxmNT2mx8-29" edge="1">
            <mxGeometry relative="1" as="geometry">
              <mxPoint y="156" as="offset" />
              <Array as="points">
                <mxPoint x="211" y="567.5" />
              </Array>
            </mxGeometry>
          </mxCell>
        </UserObject>
        <UserObject label="" tags="Background" id="fgKurtapimcUxmNT2mx8-97">
          <mxCell style="vsdxID=95;edgeStyle=none;startArrow=none;endArrow=block;startSize=5;endSize=5;strokeWidth=2;spacingTop=0;spacingBottom=0;spacingLeft=0;spacingRight=0;verticalAlign=middle;html=1;labelBackgroundColor=#ffffff;rounded=0;exitX=0.49612403100775193;exitY=1;exitDx=0;exitDy=0;exitPerimeter=0;entryX=0.5;entryY=0;entryDx=0;entryDy=0;entryPerimeter=0;" parent="1" source="fgKurtapimcUxmNT2mx8-40" target="fgKurtapimcUxmNT2mx8-43" edge="1">
            <mxGeometry relative="1" as="geometry">
              <mxPoint x="64" y="124" as="offset" />
              <Array as="points">
                <mxPoint x="632" y="946" />
                <mxPoint x="504" y="946" />
              </Array>
            </mxGeometry>
          </mxCell>
        </UserObject>
        <UserObject label="" tags="Background" id="fgKurtapimcUxmNT2mx8-98">
          <mxCell style="vsdxID=96;edgeStyle=none;startArrow=none;endArrow=block;startSize=5;endSize=5;strokeWidth=2;spacingTop=0;spacingBottom=0;spacingLeft=0;spacingRight=0;verticalAlign=middle;html=1;labelBackgroundColor=#ffffff;rounded=0;exitX=1;exitY=0.5;exitDx=0;exitDy=0;exitPerimeter=0;entryX=0;entryY=0.4594594594594595;entryDx=0;entryDy=0;entryPerimeter=0;" parent="1" source="fgKurtapimcUxmNT2mx8-13" target="fgKurtapimcUxmNT2mx8-16" edge="1">
            <mxGeometry relative="1" as="geometry">
              <mxPoint x="-36" y="109" as="offset" />
              <Array as="points">
                <mxPoint x="880" y="171" />
                <mxPoint x="880" y="186.97" />
              </Array>
            </mxGeometry>
          </mxCell>
        </UserObject>
        <UserObject label="" tags="Background" id="fgKurtapimcUxmNT2mx8-99">
          <mxCell style="vsdxID=97;edgeStyle=none;startArrow=none;endArrow=block;startSize=5;endSize=5;strokeWidth=2;spacingTop=0;spacingBottom=0;spacingLeft=0;spacingRight=0;verticalAlign=middle;html=1;labelBackgroundColor=#ffffff;rounded=0;exitX=0.5;exitY=1;exitDx=0;exitDy=0;exitPerimeter=0;entryX=1;entryY=0.6956521739130435;entryDx=0;entryDy=0;entryPerimeter=0;" parent="1" source="fgKurtapimcUxmNT2mx8-26" target="fgKurtapimcUxmNT2mx8-30" edge="1">
            <mxGeometry relative="1" as="geometry">
              <mxPoint y="189" as="offset" />
              <Array as="points">
                <mxPoint x="211" y="634" />
              </Array>
            </mxGeometry>
          </mxCell>
        </UserObject>
        <UserObject label="" tags="Background" id="fgKurtapimcUxmNT2mx8-100">
          <mxCell style="vsdxID=98;edgeStyle=none;startArrow=none;endArrow=block;startSize=5;endSize=5;strokeWidth=2;spacingTop=0;spacingBottom=0;spacingLeft=0;spacingRight=0;verticalAlign=middle;html=1;labelBackgroundColor=#ffffff;rounded=0;exitX=0.5;exitY=1;exitDx=0;exitDy=0;exitPerimeter=0;entryX=0.49557522123893805;entryY=0;entryDx=0;entryDy=0;entryPerimeter=0;" parent="1" source="fgKurtapimcUxmNT2mx8-46" target="fgKurtapimcUxmNT2mx8-49" edge="1">
            <mxGeometry relative="1" as="geometry">
              <mxPoint y="130" as="offset" />
              <Array as="points">
                <mxPoint x="211" y="880.5" />
                <mxPoint x="210.5" y="880.5" />
              </Array>
            </mxGeometry>
          </mxCell>
        </UserObject>
        <UserObject label="" tags="Background" id="fgKurtapimcUxmNT2mx8-101">
          <mxCell style="vsdxID=99;edgeStyle=none;startArrow=none;endArrow=block;startSize=5;endSize=5;strokeWidth=2;spacingTop=0;spacingBottom=0;spacingLeft=0;spacingRight=0;verticalAlign=middle;html=1;labelBackgroundColor=#ffffff;rounded=0;exitX=1;exitY=0.4864864864864865;exitDx=0;exitDy=0;exitPerimeter=0;entryX=1;entryY=0.5;entryDx=0;entryDy=0;entryPerimeter=0;" parent="1" source="fgKurtapimcUxmNT2mx8-16" target="fgKurtapimcUxmNT2mx8-11" edge="1">
            <mxGeometry relative="1" as="geometry">
              <mxPoint x="-113" y="277" as="offset" />
              <Array as="points">
                <mxPoint x="1193.34" y="187" />
                <mxPoint x="1193.34" y="457" />
              </Array>
            </mxGeometry>
          </mxCell>
        </UserObject>
        <UserObject label="" tags="Background" id="fgKurtapimcUxmNT2mx8-102">
          <mxCell style="vsdxID=100;edgeStyle=none;startArrow=none;endArrow=block;startSize=5;endSize=5;strokeWidth=2;spacingTop=0;spacingBottom=0;spacingLeft=0;spacingRight=0;verticalAlign=middle;html=1;labelBackgroundColor=#ffffff;rounded=0;exitX=1;exitY=0.5;exitDx=0;exitDy=0;exitPerimeter=0;entryX=0;entryY=0.5;entryDx=0;entryDy=0;entryPerimeter=0;" parent="1" source="fgKurtapimcUxmNT2mx8-5" target="fgKurtapimcUxmNT2mx8-7" edge="1">
            <mxGeometry relative="1" as="geometry">
              <mxPoint x="-65" y="64" as="offset" />
              <Array as="points">
                <mxPoint x="553" y="297" />
                <mxPoint x="553" y="223" />
              </Array>
            </mxGeometry>
          </mxCell>
        </UserObject>
        <UserObject label="" tags="Background" id="fgKurtapimcUxmNT2mx8-103">
          <mxCell style="vsdxID=101;edgeStyle=none;startArrow=none;endArrow=block;startSize=5;endSize=5;strokeWidth=2;spacingTop=0;spacingBottom=0;spacingLeft=0;spacingRight=0;verticalAlign=middle;html=1;labelBackgroundColor=#ffffff;rounded=0;exitX=1;exitY=0.5;exitDx=0;exitDy=0;exitPerimeter=0;entryX=0;entryY=0.5238095238095238;entryDx=0;entryDy=0;entryPerimeter=0;" parent="1" source="fgKurtapimcUxmNT2mx8-13" target="fgKurtapimcUxmNT2mx8-17" edge="1">
            <mxGeometry relative="1" as="geometry">
              <mxPoint x="-36" y="140" as="offset" />
              <Array as="points">
                <mxPoint x="880" y="171" />
                <mxPoint x="880" y="249.2" />
              </Array>
            </mxGeometry>
          </mxCell>
        </UserObject>
      </root>
    </mxGraphModel>
  </diagram>
</mxfile>
